<?xml version="1.0" encoding="UTF-8" standalone="no"?>
<!-- Creator: CorelDRAW X7 -->

<svg
   xml:space="preserve"
   width="1573.3956mm"
   height="337.7775mm"
   version="1.1"
   style="clip-rule:evenodd;fill-rule:evenodd;image-rendering:optimizeQuality;shape-rendering:geometricPrecision;text-rendering:geometricPrecision"
   viewBox="0 0 157339.56 33777.75"
   id="svg66"
   sodipodi:docname="sheep.svg"
   inkscape:version="1.2.1 (9c6d41e410, 2022-07-14, custom)"
   xmlns:inkscape="http://www.inkscape.org/namespaces/inkscape"
   xmlns:sodipodi="http://sodipodi.sourceforge.net/DTD/sodipodi-0.dtd"
   xmlns:xlink="http://www.w3.org/1999/xlink"
   xmlns="http://www.w3.org/2000/svg"
   xmlns:svg="http://www.w3.org/2000/svg"><sodipodi:namedview
   id="namedview68"
   pagecolor="#ffffff"
   bordercolor="#000000"
   borderopacity="0.25"
   inkscape:showpageshadow="2"
   inkscape:pageopacity="0.0"
   inkscape:pagecheckerboard="0"
   inkscape:deskcolor="#d1d1d1"
   inkscape:document-units="mm"
   showgrid="true"
   inkscape:zoom="0.092207987"
   inkscape:cx="1784.0103"
   inkscape:cy="-1084.5047"
   inkscape:window-width="1656"
   inkscape:window-height="1003"
   inkscape:window-x="0"
   inkscape:window-y="0"
   inkscape:window-maximized="0"
   inkscape:current-layer="layer3"><inkscape:grid
     type="xygrid"
     id="grid6333"
     originx="-2128.9665"
     originy="-2126.7235" /></sodipodi:namedview>
 <defs
   id="defs54"><linearGradient
   inkscape:collect="always"
   id="linearGradient2308"><stop
     style="stop-color:#fde3e4;stop-opacity:1;"
     offset="0"
     id="stop2304" /><stop
     style="stop-color:#f5b2b6;stop-opacity:1;"
     offset="1"
     id="stop2306" /></linearGradient>
  <style
   type="text/css"
   id="style52">
   <![CDATA[
    .fil2 {fill:#FEFEFE}
    .fil0 {fill:#2B2A29}
    .fil1 {fill:#F5B2B6}
   ]]>
  </style>
 <linearGradient
   inkscape:collect="always"
   xlink:href="#linearGradient2308"
   id="linearGradient2310"
   x1="5484.5815"
   y1="25771.266"
   x2="39262.266"
   y2="25771.266"
   gradientUnits="userSpaceOnUse"
   gradientTransform="translate(11368.282,-20650.179)" /></defs>
 <g
   inkscape:groupmode="layer"
   id="layer1"
   inkscape:label="Bottom"
   transform="translate(-2128.9667,-2126.7235)" /><g
   id="Слой_x0020_1"
   inkscape:label="Слой 1"
   inkscape:groupmode="layer"
   transform="translate(-2128.9667,-2126.7235)">
  <metadata
   id="CorelCorpID_0Corel-Layer" />
  
  
  <g
   id="g6342"
   transform="translate(-3355.5827,-6755.6695)"><circle
     style="clip-rule:evenodd;fill:url(#linearGradient2310);fill-opacity:1;fill-rule:evenodd;stroke:#000000;stroke-width:1144.45;stroke-dasharray:none;stroke-opacity:1;image-rendering:optimizeQuality;shape-rendering:geometricPrecision;text-rendering:geometricPrecision"
     id="path292"
     cx="33741.707"
     cy="5121.0869"
     transform="rotate(40.406893)"
     r="16316.617" /><g
     id="g290"
     transform="translate(7687.269,16939.29)"><g
       id="g59">
   <path
   class="fil0"
   d="m 15486,17435 c -125,-158 42,-379 237,-334 36,95 4,207 -43,275 -54,47 -25,-12 -77,9 -63,28 -1,62 -117,50 z m 562,-610 v 0 c 114,100 197,215 156,393 -145,36 -185,-45 -284,-18 -4,48 17,121 28,176 21,107 38,46 83,117 -7,136 -136,294 -250,305 13,-103 70,-163 93,-247 -74,22 -138,30 -227,23 22,-123 188,-75 220,-548 3,-57 -23,-126 -58,-201 l -2,-3 -1,-2 -2,-5 -1,-2 -2,-4 -2,-5 v 0 l -3,-5 -2,-4 -1,-2 -5,-10 -3,-6 v 0 l -2,-5 -2,-4 -1,-2 -8,-16 v 0 l -3,-6 -2,-3 -3,-8 -1,-1 -2,-4 -7,-15 -1,-2 c -5,-9 -9,-17 -13,-26 l -1,-2 -3,-6 -1,-1 -1,-4 -3,-6 v 0 l -3,-5 -1,-4 -1,-2 -3,-6 -1,-1 -4,-10 v 0 c -4,-9 -9,-19 -13,-28 v 0 l -3,-9 -1,-1 v -2 l -3,-5 v -2 l -1,-2 -3,-8 v 0 c -2,-5 -5,-11 -7,-17 v -2 h -1 l -3,-9 v 0 c -2,-6 -4,-12 -6,-19 v 0 l -3,-9 v 0 c -2,-6 -4,-13 -5,-19 l -1,-1 -2,-8 v 0 l -2,-9 v -1 l -2,-8 -1,-2 c 0,-3 -1,-5 -1,-8 66,42 98,121 166,179 l 9,7 1,1 3,3 4,3 1,1 2,2 4,3 3,2 v 0 l 3,3 4,3 2,2 1,1 4,3 3,2 1,1 6,5 3,2 1,1 3,2 4,3 2,1 1,2 4,3 4,2 v 1 l 3,2 4,3 2,2 1,1 4,2 3,3 2,1 2,2 3,3 4,2 v 0 l 4,3 3,3 2,1 2,1 3,3 4,3 1,1 2,2 4,2 3,3 v 0 l 4,3 3,3 2,1 2,1 4,3 3,3 h 1 l 3,3 10,8 4,3 3,2 4,3 3,3 v 0 l 3,3 4,2 2,2 1,1 4,3 3,3 3,2 1,1 3,2 v 1 l 6,5 h 1 l 3,3 3,3 4,3 3,2 z m -2400,-57 c 0,3 0,7 1,11 0,3 0,6 0,9 l 1,4 v 2 l 1,4 v 3 l 1,4 v 2 l 1,4 v 2 l 1,6 v 0 c 1,2 1,4 2,6 4,17 9,32 15,44 36,66 232,199 98,329 -74,72 -207,183 -315,200 -313,51 -93,-157 -156,-285 -76,10 -61,19 -102,194 -45,192 -30,100 -126,172 -7,63 -5,314 15,376 32,100 45,-18 29,196 183,-4 235,-19 381,-78 78,-32 106,-15 186,-26 118,-15 81,-57 166,-75 120,114 29,193 298,187 100,-242 -110,-314 -6,-423 70,-75 291,-160 325,-263 58,-180 -128,-303 33,-479 17,-19 43,-43 71,-69 l 2,-1 2,-2 3,-3 1,-1 4,-3 1,-1 3,-3 2,-2 2,-2 3,-3 h 1 l 4,-4 1,-1 3,-3 2,-2 2,-1 4,-4 v 0 l 4,-4 1,-1 3,-3 2,-2 2,-1 4,-4 v 0 l 4,-4 1,-1 3,-3 3,-3 1,-1 4,-4 v 0 l 4,-3 1,-2 3,-2 3,-3 1,-1 3,-4 1,-1 3,-3 2,-2 2,-2 3,-3 1,-1 4,-4 2,-3 1,-1 2,-2 h 1 l 4,-5 1,-1 3,-4 1,-1 3,-3 2,-2 v 0 l 4,-5 1,-1 3,-4 1,-1 1,-1 3,-3 v -1 l 2,-2 3,-3 v 0 l 3,-4 1,-2 1,-1 2,-3 1,-1 1,-1 3,-4 v 0 l 3,-4 v 0 l 2,-3 v -1 l 2,-3 v 0 c 2,-3 4,-6 6,-9 l 1,-2 2,-3 1,-1 v -1 c 2,-3 3,-6 5,-9 l 1,-1 1,-4 1,-1 v 0 l 2,-4 v -2 l 2,-2 v -2 l 2,-4 v 0 l 1,-5 1,-1 1,-3 v -2 l 1,-3 v -1 0 c 0,-1 1,-3 1,-4 v -1 -3 l 1,-2 c 0,-1 0,-2 0,-4 -164,-34 -218,-6 -281,91 -2,4 -5,7 -7,11 l -1,1 v 0 l -3,5 v 1 l -1,1 -2,4 -1,1 v 1 l -3,5 v 1 l -3,4 v 1 0 0 l -3,5 v 1 l -2,5 h -1 l -2,5 v 1 l -1,1 -1,3 v 1 l -1,1 -1,3 v 0 l -1,2 -2,4 v 0 1 l -1,2 v 1 l -1,3 -1,4 v 0 l -1,2 -1,2 v 1 2 l -1,2 v 0 l -1,2 v 2 l -1,3 -1,2 v 2 l -1,2 v 1 1 l -1,3 -1,4 v 2 0 l -1,2 v 2 3 l -1,2 v 0 2 2 l -1,2 v 2 l -1,6 v 2 2 0 l -1,2 v 2 0 2 2 l -1,2 v 2 c -4,49 -3,94 -38,157 -75,134 -61,9 -128,270 -27,104 -28,251 -104,299 -94,29 -217,-5 -265,-75 l 84,-174 c 48,-60 93,-104 136,-165 54,-77 73,-203 76,-312 v -5 -4 -5 -5 -1 -4 -4 -4 -1 -5 -3 -1 -5 -4 -1 l -1,-4 v -4 -1 -4 0 -4 -5 l -1,-4 v 0 -4 -4 -1 -4 l -1,-4 v 0 -4 -4 0 l -1,-4 v -1 -6 -2 l -1,-6 v 0 l -1,-4 v -1 -3 -3 l -1,-3 v -1 -3 -1 l -1,-2 v -4 -1 l -1,-2 v -3 l -1,-3 v 0 -3 -2 l -1,-1 v -3 l -1,-1 v -2 -3 l -1,-1 v -1 l -1,-3 v -1 -1 l -1,-3 v 0 -2 l -1,-2 v -2 0 l -2,-3 v -1 0 l -1,-3 v 0 -1 l -1,-2 v -1 0 l -1,-3 v 0 h -1 l -1,-2 v 0 0 0 c 0,-1 -1,-2 -1,-2 v 0 0 c -1,-1 -1,-2 -1,-2 -16,-14 10,-39 -58,-7 -72,34 -105,156 -132,198 -149,-29 -128,-260 -238,-341 -1,1 -2,1 -4,2 v 1 l -3,2 -1,1 -2,2 -1,1 -2,2 -1,1 -2,3 -1,1 -2,2 -1,1 c -1,2 -2,3 -3,4 v 0 c -1,2 -2,3 -3,5 v 1 l -2,3 -1,2 -2,2 -1,2 -2,3 -1,2 -1,3 -1,2 -2,3 -1,2 v 1 l -2,4 v 0 l -3,6 v 0 l -2,5 v 0 l -1,3 -1,4 -1,1 -2,5 v 1 l -2,5 -1,1 -1,5 -1,2 v 0 l -2,6 -2,6 v 1 l -1,5 v 1 l -2,4 v 2 l -1,4 -1,4 -1,1 v 3 l -1,4 -1,2 -1,6 -1,7 -2,7 v 1 1 l -1,5 -1,3 v 4 l -1,3 -1,4 v 4 1 l -1,5 v 1 l -1,5 v 2 1 l -1,6 -1,7 v 1 1 l -1,7 v 0 6 3 l -1,5 v 2 6 1 5 l -1,2 v 1 7 7 1 5 1 3 5 2 4 4 2 l 1,5 z m -1079,-40 c -4,2 -7,4 -10,5 h -1 l -2,1 -3,2 v 0 l -5,2 v 0 l -4,1 v 1 h -1 c -2,1 -5,2 -7,3 h -1 l -1,1 -3,1 v 0 l -3,1 h -1 l -3,1 h -1 c -2,1 -5,2 -7,3 v 0 l -3,1 v 0 h -3 l -1,1 h -1 -2 l -1,1 h -2 v 0 l -3,1 v 0 l -4,1 -1,1 -6,1 -2,1 v 0 h -2 -1 c -10,3 -18,6 -27,13 v 0 h -1 l -1,1 v 0 l -2,2 v 0 z m -124,53 c -1,1 -3,2 -4,3 l -1,1 -1,2 -3,2 c -1,2 -2,3 -4,5 v 0 l -1,2 -1,1 -2,3 h -1 l -2,3 v 0 l -3,3 -1,1 -1,3 -2,2 -1,1 -2,3 -1,1 -3,4 v 0 l -3,4 c -15,22 -33,50 -56,89 -55,89 -97,193 -171,247 -82,1 -211,-50 -253,-101 14,-77 38,-60 104,-115 38,-32 72,-59 74,-120 v 0 0 0 0 0 0 -1 0 0 0 0 0 0 0 0 0 l 1,-1 v 0 0 0 0 0 0 0 0 -1 0 0 0 0 0 -1 0 0 0 0 0 0 0 -1 0 0 0 0 0 0 0 -1 0 0 0 0 0 0 -1 0 0 0 0 0 c -2,-1 -4,-1 -6,-2 v 0 0 c -2,-1 -4,-1 -5,-2 h -1 c -1,0 -3,-1 -5,-1 v 0 l -5,-1 h -1 l -5,-1 h -1 c -3,-1 -7,-1 -10,-2 h -1 v 0 0 h -5 v 0 h -1 v 0 l -5,-1 v 0 h -1 -5 -1 -5 v 0 h -2 c -3,0 -6,0 -9,0 h -1 -1 l -5,1 v 0 h -6 v 0 0 l -6,1 v 0 l -5,1 h -1 -5 -2 l -4,1 h -2 -1 l -5,1 v 0 l -6,1 v 0 l -3,1 h -3 v 0 l -6,1 v 1 l -6,1 h -1 l -4,1 h -2 -1 l -3,1 h -2 -1 l -3,1 -2,1 h -1 -3 l -3,1 v 0 h -3 l -3,1 v 0 l -3,1 h -3 c -71,15 -144,28 -208,-15 15,-12 27,-21 37,-27 v 0 l 3,-1 v 0 l 2,-1 1,-1 3,-1 v 0 l 1,-1 1,-1 h 1 l 2,-1 v 0 l 2,-1 v 0 l 2,-1 h 1 l 1,-1 h 1 l 1,-1 h 1 1 l 1,-1 v 0 l 2,-1 v 0 l 2,-1 v 0 h 1 1 l 1,-1 h 1 v 0 l 1,-1 h 1 1 v 0 l 2,-1 v 0 l 1,-1 v 0 h 1 1 l 1,-1 h 1 v 0 l 1,-1 v 0 l 1,-1 v 0 h 2 v -1 h 1 v 0 l 1,-1 h 1 v -1 h 1 l 1,-1 1,-1 v 0 l 1,-1 1,-1 h 1 v -1 l 1,-1 h 1 l 1,-1 v 0 l 1,-2 v 0 l 2,-1 v -1 0 l 1,-2 1,-1 1,-1 1,-1 1,-1 v -1 l 1,-2 h 1 l 1,-2 v 0 l 2,-2 v -1 l 1,-2 1,-1 1,-2 1,-1 1,-1 1,-3 v 0 l 2,-3 v -1 l 2,-3 v 0 l 2,-3 1,-2 1,-2 1,-2 1,-2 2,-3 v -1 l 2,-4 h 1 l 2,-5 v 0 l 2,-4 1,-1 2,-4 1,-2 1,-3 2,-3 1,-2 2,-5 1,-1 3,-6 23,-42 c 76,-136 202,-141 308,-227 70,-57 71,-112 133,-161 52,48 62,74 132,91 39,-236 -342,-428 -415,-419 -2,0 -5,1 -7,2 v 0 l -3,2 -4,1 -3,2 -4,2 -2,1 -4,2 -3,2 -3,2 -3,1 -3,3 -2,1 -4,2 -2,2 -3,3 -2,1 -3,3 -2,2 -3,2 -2,2 -3,3 -2,1 -3,3 -2,2 -3,4 -1,1 -3,4 -1,1 -4,4 v 1 c -3,3 -6,7 -9,10 v 0 c -62,84 -80,198 -229,211 -127,11 -127,-49 -214,55 -51,61 -19,39 -43,109 -28,82 -37,18 -59,112 -45,-79 -94,-74 -91,-202 2,-50 9,-244 17,-280 30,-129 270,-137 374,-82 45,24 -21,7 46,30 l 1,1 4,1 4,1 c 135,-46 61,-110 215,-167 v -3 -1 -3 -2 -1 -3 -1 -3 0 -4 0 -3 -2 l -1,-1 v -3 -1 -3 0 -3 -1 -2 -1 -2 l -1,-2 v -1 -3 0 -3 -1 -2 l -1,-1 v -2 -2 -1 -2 -1 l -1,-2 v -1 -2 -1 l -1,-2 v -1 -2 -2 0 l -1,-3 v 0 -2 -1 l -1,-2 v -1 -2 -2 h -1 v -3 0 l -1,-2 v -1 -2 -1 l -1,-1 v -2 -1 l -1,-2 v 0 -2 -1 l -1,-2 v -1 -1 l -1,-2 v -1 -2 0 l -1,-2 v -1 l -1,-2 v -1 -1 l -1,-2 v 0 -3 0 l -1,-2 v -1 l -1,-2 v -1 -1 l -1,-2 v 0 l -1,-5 v 0 l -1,-2 v -1 l -1,-2 v -1 -1 l -1,-2 v 0 l -1,-3 v 0 -2 l -1,-1 v -2 -1 l -1,-1 v -2 -1 l -1,-2 v 0 l -1,-3 v 0 -2 c -4,-13 -8,-27 -11,-42 -91,11 -84,27 -129,42 v 0 0 0 h -1 v 0 0 0 0 0 0 l -1,1 v 0 0 0 0 0 h -1 v 0 0 0 0 0 h -1 v 0 0 0 0 0 0 l -1,1 v 0 0 0 0 0 h -1 v 0 0 0 0 0 h -1 v 0 0 0 0 0 h -1 v 0 1 0 0 h -1 v 0 0 0 0 0 h -1 v 0 0 0 0 h -1 v 0 0 0 l -2,1 h -1 v 0 l -2,1 h -1 v 0 l -2,1 h -1 v 0 h -2 -1 v 1 h -1 -1 v 0 h -2 v 0 l -1,1 h -1 v 0 h -1 -1 v 0 h -1 -1 v 0 l -1,1 h -1 v 0 h -1 -1 v 0 h -2 v 0 h -1 -1 v 0 0 h -1 v 0 h -1 v 0 0 h -1 v -1 0 h -1 v 0 0 0 h -1 v 0 h -1 v -1 0 h -1 v 0 0 0 h -1 v -1 0 h -1 v 0 0 -1 h -1 v 0 0 0 -1 h -1 v 0 0 0 l -1,-1 v 0 0 0 0 l -1,-1 v 0 0 -1 0 h -1 v 0 0 l -1,-1 v 0 c -8,-8 -21,-18 -75,-20 -98,62 -36,82 -84,154 -13,19 -124,69 -149,82 -28,-55 16,-15 -37,-95 -143,69 -129,114 -183,240 l -157,278 c -30,42 -2,4 -33,36 l -123,114 -63,-47 -167,78 c -6,-174 359,-352 381,-619 l 65,-267 c 135,-21 218,40 289,-65 1,-38 -22,-29 -7,-73 26,-72 19,36 38,-94 11,-74 34,-156 12,-215 -149,-21 -251,192 -432,204 -49,-59 -32,-117 -137,-94 -191,42 -231,127 -348,184 -64,30 -106,70 -147,121 -46,56 -80,123 -151,183 -47,39 -67,32 -96,103 -90,223 115,219 124,360 -103,137 -404,65 -530,-8 -31,-127 36,-169 83,-275 29,-68 131,-398 -38,-290 -56,36 -26,27 -59,70 -111,-5 -142,-90 -250,-72 -87,61 -101,220 -183,278 -115,82 -267,7 -293,-93 133,-67 284,-29 346,-320 67,-319 77,-257 363,-236 l 23,-27 c 26,-26 -1,-7 27,-24 39,-25 36,-17 82,-23 303,-36 281,-108 435,56 138,-83 47,-12 116,-131 147,-29 69,48 182,-54 92,-85 176,-71 267,-199 76,-106 67,-27 134,-47 102,-76 147,-694 128,-859 101,17 91,47 108,138 40,215 57,487 28,703 3,3 9,3 10,8 1,5 8,6 10,8 152,131 111,261 414,301 -28,-88 -77,-159 -110,-254 -82,-231 -49,-517 -98,-633 -39,-92 -52,-210 -88,-298 -147,-361 -279,-711 -403,-1096 -265,-824 -239,-559 -556,-926 -112,-129 -167,-327 -212,-539 -20,-94 -64,-491 -127,-556 l -18,-12 c 3,-113 -5,-176 -16,-284 -7,-59 -5,-150 -39,-194 -92,-117 52,122 -20,-22 l 16,-158 c -36,97 -14,336 -60,433 -91,-220 20,-820 13,-1075 -59,77 -78,307 -148,412 -20,-46 51,-423 55,-528 8,-203 -45,-370 -53,-590 -293,-85 -89,-225 -233,-265 l -15,204 c 6,75 65,115 98,169 82,134 -154,229 -217,277 -9,193 251,301 296,365 87,124 -120,310 -142,413 -16,73 29,76 75,126 -39,282 -38,122 125,184 -12,130 -291,423 -436,417 -122,-5 -29,-10 -136,16 -114,28 -183,-37 -267,-87 -43,77 -102,86 -157,153 -20,168 39,78 41,200 1,91 -56,98 -38,190 125,4 96,-100 286,-113 41,-76 61,-152 178,-86 66,38 128,98 116,209 -10,100 -91,142 -179,88 -150,-92 -90,9 -89,122 144,51 86,172 300,202 173,25 242,-141 388,-91 63,22 188,262 186,310 -5,89 -162,234 -242,262 -3,-81 35,-113 -4,-193 -124,-81 -189,86 -250,119 -95,-41 -55,-85 -167,-110 -155,76 -98,408 -250,307 -46,-30 -57,-164 -79,-220 -37,-96 -50,-144 -31,-257 77,-12 114,54 193,49 146,-9 27,-120 -52,-153 -24,-10 -223,-52 -251,-55 -124,323 -346,98 -265,-98 45,-110 64,-43 71,-186 -47,-37 -90,-67 -76,-154 24,-144 24,-69 -12,-210 l -184,74 c 50,71 90,141 55,246 -69,27 -146,22 -185,82 -26,39 -52,169 -44,208 133,-46 235,3 226,144 -42,39 -77,44 -130,83 -190,143 -178,218 -250,449 69,50 155,131 265,49 149,-111 55,-212 137,-346 41,-67 42,-137 149,-149 125,-13 226,51 210,178 -52,38 -56,21 -110,50 13,255 -73,132 -116,279 92,8 226,-35 261,-10 101,72 -25,460 -221,444 l -18,92 -107,14 c -45,127 -41,53 -50,214 -15,278 -223,71 -299,77 -16,1 -143,81 -164,93 38,111 37,268 161,307 60,-73 38,-112 133,-169 153,15 100,119 271,-4 130,-94 170,-21 320,-15 -38,-75 -123,-104 -111,-222 13,-142 209,-199 229,-32 7,63 -6,79 24,129 l 39,-170 115,-2 c -29,-119 -100,-91 -92,-293 -76,-50 -150,-30 -124,-178 27,-154 194,-199 292,-85 51,60 57,33 75,89 24,74 15,161 128,207 207,-186 -34,-350 -1,-449 33,-51 104,-99 200,-86 102,14 90,89 137,166 54,89 138,17 150,138 10,100 -76,131 -154,148 44,58 70,77 13,161 -33,49 -74,87 -96,156 l 115,-8 c 22,-99 78,-114 174,-94 26,55 8,72 18,130 1,4 2,8 3,12 9,37 12,-2 20,60 -142,128 -26,267 -303,208 -76,-16 -159,27 -218,-32 -54,-55 -35,-140 -129,-178 -54,162 -52,376 -231,467 -25,13 -58,26 -90,13 -37,-16 -9,5 -34,-34 l -24,-47 c -72,31 -114,75 -216,76 -147,1 -194,-62 -330,13 -89,49 -34,27 -63,89 -22,47 -79,63 -63,123 13,50 -1,-53 19,35 -103,56 -22,23 -58,106 -34,77 -58,19 -87,94 121,80 257,-238 508,-9 42,39 129,149 192,156 83,9 209,-77 249,-68 1,3 2,5 2,10 -1,4 1,8 1,9 l -53,66 c 64,22 115,15 170,49 75,45 39,54 163,77 53,-49 60,-79 151,-26 54,31 117,16 186,-9 -6,-107 -41,-99 -81,-179 -33,-68 -26,-140 -56,-200 -326,18 -419,-110 -263,-189 116,-59 196,-124 342,-66 69,27 121,110 220,46 35,-23 46,-59 60,-91 l 57,-96 c 45,54 39,416 -217,419 66,248 263,248 475,261 174,10 207,-188 288,227 29,147 6,220 -91,284 -173,115 -113,204 -280,338 -39,31 -7,38 -85,33 -22,-96 37,-48 -17,-148 -26,-48 -62,-76 -60,-109 31,-114 71,3 106,-135 69,-270 -171,-205 -194,-67 -13,79 -50,87 -65,166 l -9,68 c -62,25 -148,-35 -233,-21 -44,8 -137,92 -169,118 -78,62 -168,132 -259,176 -96,47 -87,14 -100,0 -84,-102 190,-257 208,-410 17,-140 -7,-175 -105,-223 -102,-48 -101,-4 -206,-9 -32,-1 -32,-12 -88,-14 l -172,373 c -40,190 -6,112 -150,235 -66,57 -19,46 -53,130 -30,76 -108,139 -137,242 134,47 211,61 305,-40 110,-120 129,-129 258,-27 26,-85 25,-109 135,-97 66,82 86,312 -133,400 -19,226 -111,217 -138,339 38,28 140,79 160,120 49,103 -44,124 -43,245 116,78 119,124 324,110 45,-79 85,-140 197,-87 21,91 6,172 -28,262 -34,88 -104,119 -146,196 264,-65 198,-18 339,48 l 184,-70 c 36,-261 -21,-102 113,-268 43,-52 81,-235 232,-126 161,116 11,541 20,679 156,101 332,-8 425,91 106,113 154,222 353,70 -67,-53 -169,-65 -66,-322 -77,16 -167,104 -249,31 -49,-85 29,-129 64,-177 49,-66 20,-23 29,-108 6,-50 9,-67 43,-103 149,-158 254,26 343,92 -8,44 -17,33 -40,77 l 166,14 c 1,2 3,-9 4,-7 8,24 2,-48 74,-137 -58,218 -291,346 -183,463 l 39,18 c 57,20 112,22 136,91 37,108 -28,217 49,258 34,4 58,-118 147,-152 193,128 37,379 315,267 158,-63 372,-156 358,212 48,27 56,40 93,60 112,-102 92,-245 265,-307 129,-46 218,-29 250,-315 13,-110 -14,-156 46,-238 17,-25 42,-51 64,-80 l 1,-1 h 1 v -2 l 2,-1 v 0 l 1,-1 1,-2 1,-1 1,-2 v 0 l 1,-1 1,-2 v 0 l 1,-1 1,-1 v 0 l 1,-2 1,-1 v 0 l 1,-2 1,-1 v 0 l 1,-2 1,-1 v 0 l 1,-2 v -1 h 1 v -2 l 1,-1 v 0 l 1,-2 1,-1 v 0 l 1,-2 1,-1 v 0 l 1,-2 v -1 h 1 v -2 l 1,-1 v 0 l 1,-2 1,-1 v 0 l 1,-2 v -1 0 l 1,-2 1,-1 v 0 l 1,-3 v -1 l 1,-1 v -1 l 1,-1 v -1 l 1,-1 v -1 l 1,-1 v -1 -1 l 1,-2 v 0 l 1,-3 v 0 -1 l 1,-2 v -1 -1 l 2,-4 v -1 -1 l 1,-2 v 0 -3 0 l 1,-3 v -1 l 1,-3 v 0 -3 0 0 l 1,-3 c 7,-66 -74,-430 -105,-468 -84,20 -220,210 -253,302 -20,57 -19,138 -76,167 z m 25,-1110 c 6,6 11,11 17,16 l 6,6 6,5 6,5 2,2 3,4 c 8,6 15,13 23,20 h 1 l 4,5 h 1 l 6,5 4,4 2,1 6,5 5,5 v 0 l 6,5 2,2 4,3 5,5 h 1 l 5,5 5,4 h 1 l 5,5 1,1 5,4 5,4 3,3 3,2 5,4 2,2 4,2 5,5 1,1 10,7 v 0 l 8,7 1,1 h 1 l 6,5 3,2 2,2 5,3 2,2 1,1 7,5 1,1 4,3 5,3 1,1 4,3 4,3 h 1 v 1 l 7,5 h 1 l 1,1 7,5 h 1 l 2,2 6,4 v 0 c 6,4 11,7 16,11 726,463 2556,333 3254,-267 l 1,-1 v 0 l 1,-1 1,-1 v 0 h 1 v -1 h 1 v -1 0 h 1 v 0 l 1,-1 v 0 l 1,-1 h 1 v 0 l 1,-1 v 0 0 l 1,-1 v 0 h 1 v 0 l 1,-1 v 0 h 1 v -1 0 h 1 v 0 l 1,-1 v 0 0 h 1 v -1 h 1 v 0 0 l 1,-1 v 0 h 1 v 0 0 0 l 1,-1 v 0 0 h 1 v 0 l 1,-1 v 0 0 h 1 v 0 -1 h 1 v 0 0 h 1 v 0 0 l 1,-1 v 0 0 h 1 v 0 -1 0 h 1 v 0 0 l 1,-1 v 0 0 h 1 v 0 -1 h 1 v 0 0 h 1 v 0 -1 h 1 v 0 0 -1 h 1 v 0 0 l 1,-1 v 0 h 1 v 0 -1 h 1 v 0 -1 0 h 1 v 0 l 1,-1 v 0 0 l 1,-1 v 0 0 l 1,-1 v 0 c 5,-5 12,-13 20,-26 l 105,-112 c 29,-24 72,-85 95,-121 285,-438 124,-691 180,-1120 28,-214 252,-291 499,-816 101,-215 387,-1030 452,-1280 72,-275 156,-879 93,-1169 -27,-126 -26,-83 20,-168 31,-57 20,-122 49,-177 68,101 210,763 240,922 113,597 -34,824 -52,1047 320,-345 664,-478 829,-976 167,-508 76,-1053 254,-1578 44,-129 340,-809 416,-933 332,-543 539,-1061 535,-1770 33,-25 -37,-22 8,8 38,24 -20,23 19,9 -2,-160 -79,-224 4,-416 2,-4 4,-8 5,-12 105,38 194,102 194,102 -74,-98 -140,-161 -197,-200 -16,-44 -37,-113 -26,-291 1,-8 1,-15 2,-21 94,37 160,145 160,145 -20,-93 -73,-159 -120,-202 269,50 476,234 413,163 -81,-93 -424,-247 -424,-247 -6,-57 -20,-92 -27,-166 77,-21 158,6 158,6 -63,-49 -118,-56 -161,-43 -5,-51 -13,-84 -50,-121 -66,181 -186,252 -438,193 -210,-49 -290,-146 -409,-240 -65,35 -74,68 -134,116 -137,111 -113,130 -152,348 -15,83 -38,144 -101,171 -57,-53 -22,-28 -55,-108 -63,28 -10,13 -74,52 -33,-54 -55,-190 -77,24 -94,-12 -17,12 -73,-37 -118,-104 50,-298 103,-363 72,-88 109,-116 185,-134 3,-1 8,-2 11,-3 l 70,-15 c 5,-26 9,-45 15,-65 l 18,-48 c 76,-175 0,-271 -66,-455 58,34 156,168 197,248 32,-46 83,-151 119,-211 73,-125 69,-92 85,-265 17,-174 50,-450 129,-574 l -43,344 c 9,-3 13,-13 15,-10 l 104,-171 c 116,-174 239,-345 388,-488 -39,92 -136,199 -156,285 54,-107 298,-231 463,-223 l -58,47 c -3,3 -12,11 -15,13 -14,9 -3,4 -25,13 -164,60 -289,248 -453,481 -34,49 -123,199 -143,219 30,-12 2,-1 36,-26 l 154,-104 c 81,51 68,69 178,111 79,31 106,67 167,114 -26,-61 -66,-97 -79,-174 l 235,22 69,161 c 22,-39 39,-190 108,-78 38,63 -26,73 110,163 l 324,268 c 61,-16 19,-30 71,-46 69,40 118,85 182,114 -30,-94 -174,-239 -231,-309 61,35 147,133 222,134 -2,-60 -355,-402 -444,-486 -62,-58 -58,-25 -143,-54 l -158,-43 c -55,-12 -110,-28 -164,-42 52,-31 172,-82 229,-79 31,2 99,4 117,9 25,7 58,37 109,54 19,-217 -239,-367 -324,-743 -64,-285 -26,-684 -163,-904 -180,-290 -608,-514 -922,-677 -130,-67 -228,-137 -342,-207 -592,-365 -1347,-979 -2021,-1178 -182,-54 -798,-135 -896,-187 l 57,-181 c -127,87 -69,208 -353,211 l 75,-230 c -102,37 -103,92 -176,147 -19,-87 -8,-224 -58,-302 l -35,227 c -107,-50 -80,-126 -189,-166 l 37,227 c -147,-33 -202,-154 -333,-208 12,76 63,71 42,190 -88,-14 -120,-72 -219,-97 18,54 32,61 14,126 -98,15 -173,-35 -273,-39 30,27 27,16 38,55 -417,102 -838,-134 -1474,258 -345,213 -740,476 -1118,632 -400,165 -931,270 -1266,483 -184,117 -325,258 -464,403 -70,73 -135,147 -202,231 -63,80 -120,151 -154,246 l -14,36 c -793,-89 -737,-147 -1315,-619 -121,-99 -219,-212 -339,-310 -59,-48 -108,-94 -170,-147 -443,-376 -948,-621 -1552,-714 -754,-115 -1566,-263 -2356,-194 -365,32 -745,106 -1007,277 -238,155 -443,500 -332,913 45,170 114,297 188,445 381,765 746,1314 1230,2002 528,751 1179,1515 2102,1780 341,98 762,169 1143,118 248,-33 890,-169 938,-354 -78,-43 -239,58 -331,69 49,-127 147,-140 217,-240 l -443,115 c 64,-98 218,-158 322,-216 l 84,-51 c 26,-23 7,-2 28,-31 l -449,96 c 83,-101 509,-214 619,-251 -164,-59 -188,-27 -302,-148 -48,-51 -187,-165 -260,-196 103,140 239,90 186,333 -120,1 -271,-57 -375,-105 -95,-43 -243,-145 -283,-197 89,120 138,218 270,303 -197,7 -204,-129 -480,35 -76,45 -313,211 -393,217 47,-98 130,-129 176,-200 -147,24 -353,173 -476,163 11,-96 74,-74 88,-156 -105,-39 -225,22 -319,-13 -5,-75 12,-63 32,-130 -105,-7 -215,30 -316,-4 10,-75 33,-31 63,-110 l -348,6 c 68,-61 188,-60 234,-142 l -412,-6 c 108,-215 468,-130 662,-185 83,-23 13,14 44,-55 l 17,10 c 66,52 136,45 293,49 -49,-75 -189,-104 -271,-152 366,8 314,189 872,55 6,-85 -133,-263 -198,-313 l 67,214 c -85,-48 -247,-238 -339,-258 51,90 142,178 186,271 -197,-103 -447,-156 -670,-232 -422,-144 -486,36 -803,-29 11,-53 30,-58 74,-85 l 66,-36 c 71,-42 83,-76 149,-118 71,-45 336,-109 371,-170 -172,-9 -326,11 -498,-21 -80,-15 -138,-34 -224,-25 -77,8 -144,37 -215,31 l 346,-195 -300,59 c 60,-84 196,-122 226,-203 l -345,16 c 79,-43 204,-61 262,-119 -152,-7 -323,59 -462,36 126,-259 452,-125 688,-139 96,-6 171,-22 265,-21 -70,42 -178,22 -251,57 123,72 420,49 488,85 -58,43 -115,34 -154,84 115,88 638,8 743,-67 -46,-36 -141,-26 -198,-34 -68,-11 -136,-28 -198,-53 -514,-213 -383,-269 -1117,-353 l 129,-36 c -96,-91 -313,-89 -445,-115 l 292,-11 c -26,-17 -228,-89 -272,-105 -97,-34 -240,0 -316,-82 l 213,9 c -187,-130 -497,-135 -566,-203 50,-38 124,-6 206,-21 -125,-88 -428,-138 -503,-190 57,-24 328,-38 456,-93 l -286,-30 c 84,-42 396,-19 412,-32 51,-81 -17,-168 -87,-203 -124,-64 -130,13 -236,-111 24,-5 50,-8 74,-12 12,-2 29,-5 40,-8 41,-13 11,3 36,-16 -39,-69 -127,-52 -228,-70 -195,-34 -508,-138 -619,-285 l 188,-1 c -15,-75 -216,-139 -295,-163 77,-27 186,29 297,-4 -74,-61 -144,-64 -206,-110 92,-60 352,-64 481,-55 173,12 316,73 468,87 -80,-74 -203,-117 -280,-193 247,-87 447,157 679,199 -28,-50 -81,-83 -133,-123 -58,-44 -85,-67 -128,-109 141,22 278,134 466,150 -49,-90 -138,-101 -193,-177 89,10 148,48 236,55 115,9 143,-21 260,23 123,47 274,148 384,174 -64,-55 -228,-178 -263,-231 139,27 285,194 414,211 -21,-90 -66,-91 -97,-163 34,4 243,96 314,123 137,53 138,140 251,195 -53,-126 -147,-157 -202,-249 47,6 349,88 381,107 98,58 172,139 292,192 l -92,-148 c 129,22 246,254 338,296 l -52,-208 c 94,42 101,205 205,229 27,-57 13,-81 8,-147 130,36 158,186 240,263 84,78 154,145 232,243 l -123,-322 c 79,30 104,64 152,135 49,74 71,96 128,156 64,69 116,154 197,219 58,46 48,10 71,89 -373,10 -34,143 18,212 l -194,-6 c 25,105 124,122 209,166 l -19,37 c -1,2 -2,7 -3,8 -1,2 -2,8 -2,9 -1,2 -3,6 -3,9 49,29 137,67 196,68 -85,1 -221,-64 -286,-25 112,120 359,154 506,221 -59,37 -93,29 -129,78 -1,2 -3,7 -6,10 -41,-5 -1,13 -15,-12 l -11,-32 c -17,4 -25,3 -42,11 -31,17 -14,8 -31,24 16,15 7,11 31,25 12,8 20,12 34,17 83,33 189,28 269,58 -51,45 -131,44 -190,70 -67,28 -30,2 -61,47 24,34 -23,8 51,40 59,26 149,30 211,40 -25,44 9,13 -46,45 -56,32 -143,32 -175,91 69,40 173,26 238,68 -65,13 -158,39 -190,79 182,12 325,-48 481,-46 -59,59 -176,77 -257,105 -68,24 -60,10 -64,61 147,57 556,-121 712,-148 -35,46 -81,66 -131,105 -3,2 -7,5 -9,7 l -58,41 c -56,22 -51,1 -105,29 l -99,60 c 29,29 43,23 95,6 68,-22 167,-36 220,-84 50,-45 -3,-38 80,-69 247,-90 433,-170 235,-463 -73,-108 -99,-60 -173,-127 -57,-51 -175,-288 -204,-388 145,108 274,297 412,431 62,61 99,82 142,124 -43,-100 -129,-184 -173,-304 107,48 179,222 304,252 l 54,-125 c 19,251 -48,227 -96,336 l 25,9 c 16,6 22,7 38,14 28,12 17,1 47,27 -102,80 -293,-6 -333,396 165,-29 274,-29 417,28 193,76 154,29 282,167 -47,-15 -54,-17 -88,-55 -67,19 -35,30 -103,39 -49,-78 -4,-39 -125,-84 -213,-77 -261,-53 -454,80 l -514,355 c 77,-28 251,-113 306,-122 l -297,323 c 58,-32 108,-97 181,-107 -5,64 -48,113 -65,195 49,-19 42,-26 84,-52 95,-60 50,-17 94,-11 55,9 117,-66 151,-118 18,23 6,75 22,98 78,-40 99,-65 141,-143 43,-81 59,-137 149,-163 l -27,153 c 114,5 81,-89 237,-199 l 31,123 c 80,-40 107,-164 165,-230 l -55,229 c 54,-34 80,-102 114,-147 45,75 39,96 28,179 30,-30 31,-38 60,-77 41,-55 0,-33 58,-35 24,43 0,96 -6,158 60,-20 81,-55 130,-72 l -38,149 c 92,-17 143,-70 222,-50 l -44,143 c 121,-26 59,-55 135,-76 78,18 34,12 72,69 49,76 31,6 64,87 l 102,213 c 79,196 140,-24 311,-90 l -84,97 c -34,48 -22,59 -36,130 -10,52 -13,97 9,148 77,181 496,121 532,454 -50,-27 -78,-43 -113,-74 -46,-43 -53,-64 -123,-78 11,75 24,75 50,138 -66,-50 -201,-191 -297,-239 -161,-83 -609,-18 -675,153 -62,-51 10,-35 -77,-31 l -35,78 c -72,-5 -114,-40 -169,-65 l 93,-26 c 52,-30 21,-25 46,-83 232,9 210,-27 388,-115 59,-28 132,-48 152,-115 26,-85 -13,-159 -60,-192 -57,76 32,261 -534,312 -128,12 -284,-24 -361,-101 l -161,-236 -23,253 c -76,25 -71,52 -153,72 -69,17 -147,23 -200,49 l 348,-8 c 42,246 -47,174 -74,267 -5,18 23,-13 -7,41 -138,69 -216,-31 -298,64 70,-14 204,7 319,-1 -31,47 -109,82 -148,128 -106,126 -317,259 -348,430 7,-18 25,-25 47,-46 l 184,-168 c 112,-103 106,-149 317,-165 -36,165 -231,276 -255,422 47,-16 103,-25 139,-56 62,-52 33,-81 112,-108 -26,154 -119,270 -122,466 74,-70 101,-217 171,-267 11,177 3,310 97,467 50,84 56,28 97,104 59,109 83,482 132,631 79,-33 102,-169 128,-248 25,159 -42,303 37,452 76,145 36,327 61,493 74,-37 106,-155 182,-213 l -83,491 c 69,-32 82,-50 177,-57 -20,90 -24,177 -59,268 -153,392 -106,437 13,843 101,347 244,747 256,1109 44,-70 63,-174 113,-246 l 19,-23 c -4,190 17,437 45,626 12,85 202,339 264,398 0,-67 -14,-140 16,-192 54,102 37,331 156,381 14,-53 28,-125 62,-166 83,84 7,125 184,183 89,-124 91,-191 92,-370 1,-161 27,-298 32,-450 5,-160 -7,-283 18,-442 15,-100 24,-363 -11,-453 -90,31 -105,160 -193,181 -63,15 -13,9 -36,-6 -54,-77 3,-248 1,-349 -52,24 -381,343 -288,-15 120,-460 -123,-167 -150,-348 -11,-72 7,-275 10,-360 4,-131 -3,-233 107,-271 32,164 -55,381 -15,527 58,-25 65,-80 130,-124 l 12,329 c 114,-7 160,-140 213,-229 l 24,96 c 130,28 263,-45 319,-120 31,-41 145,-253 161,-307 -19,186 -187,391 -220,567 77,-21 119,-77 164,-137 42,-56 90,-114 125,-166 -46,133 -165,261 -204,400 103,-37 54,-45 185,-33 136,13 162,-113 239,-189 133,-130 459,-477 613,-510 -115,209 -452,566 -598,791 -297,458 -412,1141 -351,1722 12,114 46,200 42,312 -4,103 -33,239 28,317 178,226 609,-333 865,-433 -30,29 -43,24 -60,77 l 306,-99 c -91,35 -254,171 -349,233 l -90,61 c -18,16 -15,14 -29,29 155,-9 154,-52 345,-18 l 7,80 c 163,55 306,-9 364,92 39,66 30,61 157,96 79,22 193,47 272,58 96,13 218,16 302,-19 52,-22 54,-35 113,-55 61,-21 68,-17 114,-49 3,3 6,5 7,11 l 22,87 c 102,-53 83,-11 130,-108 l 129,-272 c 1,-4 4,-8 6,-11 l 56,-109 c 40,-53 19,-38 66,-50 44,69 15,310 -24,374 -81,129 -75,232 26,339 72,76 44,147 115,203 26,-16 15,10 40,-44 11,-25 12,-55 17,-86 49,73 37,23 106,66 49,31 44,53 103,84 44,-18 35,-38 71,-44 66,-12 53,70 260,98 79,11 179,165 250,124 l 29,-25 c 139,108 240,64 450,88 172,19 304,41 437,-60 -39,-27 -50,-27 -73,-64 95,-65 207,-20 262,-121 -41,-81 -72,-46 -140,-83 75,-53 208,-50 266,-114 -37,-80 -78,-45 -152,-86 206,-144 390,125 226,386 -84,135 -267,308 -431,369 -163,61 -491,129 -683,89 -200,-42 -166,-12 -356,-9 -223,2 -601,313 -701,478 -97,160 -162,377 -267,533 -67,100 -291,381 -363,437 -139,110 -105,118 -239,161 -123,39 -216,53 -352,57 158,67 433,50 620,28 518,-60 984,-708 1390,-714 -122,106 -311,190 -437,300 -76,67 -125,114 -191,176 -46,43 -161,146 -195,191 l 208,-14 c -23,7 -45,10 -69,16 -41,11 -73,22 -111,39 -86,41 -123,68 -230,84 -160,24 -420,52 -578,49 -302,-6 -873,-65 -969,-296 l 201,62 c -126,-171 -409,-167 -657,-598 -22,-38 -46,-85 -69,-131 -44,-89 -39,-78 -46,-146 -8,-78 -79,-213 -104,-304 -66,-247 -89,-837 -138,-1131 -239,27 -199,-38 -351,-80 l -92,84 c -19,-104 25,-137 -5,-219 -21,-58 -50,-100 -77,-173 -271,-15 -173,277 -151,450 6,50 5,110 28,155 29,61 1,15 30,40 65,-31 81,-130 122,-120 32,132 -22,338 112,402 93,-46 89,-125 162,-181 -2,108 -8,314 -24,420 -51,338 -18,427 72,748 23,82 7,123 25,208 38,183 170,490 262,655 43,78 130,180 228,279 l 2,2 3,4 6,5 6,6 5,6 h 1 l 5,5 6,6 5,5 6,6 6,6 3,2 3,3 5,6 2,1 4,4 6,6 h 1 z m 4501,682 c -2,0 -4,0 -6,1 -117,9 -330,-82 -414,-7 -22,26 -16,-38 -17,46 -2,127 197,226 286,277 l 3,1 2,1 v 0 l 3,2 2,1 v 0 l 5,3 h 1 l 2,2 2,1 1,1 3,1 1,1 1,1 3,2 2,1 1,1 3,1 1,1 2,1 2,2 2,1 1,1 3,2 1,1 2,1 3,2 1,1 2,1 3,2 1,1 2,2 3,2 h 1 l 2,2 4,2 v 0 l 3,2 v 1 l 5,3 1,1 3,2 v 0 l 3,3 3,2 v 0 l 3,3 3,2 h 1 l 3,3 2,1 1,1 3,3 2,1 1,1 3,3 2,1 1,2 h 1 l 6,5 3,3 1,1 2,2 3,3 3,2 v 0 l 3,3 3,3 v 0 l 4,3 3,3 3,3 3,3 v 0 l 3,3 v 0 l 3,3 3,3 3,3 3,3 3,4 v 0 c 3,3 5,6 8,9 l 3,3 v 1 l 3,3 3,3 v 0 c 55,67 90,147 65,231 -162,123 -356,-92 -503,-86 -30,90 32,187 78,245 3,-1 9,-9 11,-6 2,5 15,-8 23,-11 125,-48 242,37 345,85 189,88 230,-40 269,-187 43,-159 55,-287 -30,-419 -92,-141 120,-237 231,-228 34,50 35,127 51,181 117,14 81,-39 205,-36 40,86 64,285 -6,380 -56,-92 -9,-207 -206,-67 -108,77 -65,151 -94,305 -93,497 310,438 337,423 103,-73 12,-187 131,-240 116,-52 157,-39 230,-135 49,-65 103,-184 63,-290 -38,-97 -148,-111 -263,-123 177,-159 292,-130 264,-348 -10,-77 -41,-69 -72,-143 -64,-151 18,-192 -153,-263 -47,-20 -265,-86 -314,-89 -3,80 83,121 109,188 -370,25 -415,-314 -604,-68 -63,83 -74,191 -166,224 h -1 l -1,1 h -1 v 0 h -2 l -1,1 h -1 -1 v 0 l -1,1 h -1 v 0 l -3,1 h -1 v 0 h -1 l -3,1 h -1 -1 v 0 0 h -1 l -3,1 h -1 v 0 h -1 v 0 l -4,1 h -1 v 0 h -1 z m -924,-6387 -80,-122 c -75,46 4,63 -102,106 -219,90 -467,-224 -464,-52 1,65 97,165 140,291 3,-4 7,-16 9,-14 l 53,-103 c 66,9 84,46 127,74 141,-72 38,-58 183,-17 82,-33 32,-63 151,-34 86,22 114,35 165,-31 28,44 91,117 168,115 18,-48 -1,-71 -19,-113 86,22 25,22 102,57 l 33,-97 c 248,129 184,578 99,616 -74,10 -163,-16 -262,-5 -76,9 -155,42 -224,58 -178,42 -302,43 -443,138 -375,254 -345,428 -519,481 -82,25 -70,-10 -100,50 69,86 136,-37 387,79 172,79 116,242 10,301 -230,127 -443,-147 -706,297 247,-200 750,-68 868,-318 65,-138 -25,-232 -59,-313 377,-178 778,-248 896,-316 348,-202 558,-299 428,-721 -68,-222 -152,-420 -291,-526 -69,0 -102,26 -191,5 -80,-19 -67,-50 -143,-71 -82,77 -48,196 -216,185 z M 11981,4305 c -126,2 -139,52 -299,52 21,52 87,63 144,82 72,25 135,44 215,52 l -87,-46 c -46,-16 -52,-17 -87,-44 36,-27 93,-34 151,-47 62,-13 129,-21 181,-33 -27,-19 -3,-8 -47,-24 l -154,-44 c -2,3 -3,4 -3,8 0,3 -2,6 -3,7 0,2 -1,7 -2,9 0,2 -2,7 -2,9 -1,2 -3,8 -4,9 0,2 -1,7 -3,10 z m 5572,16 355,80 c -71,53 -87,32 -149,70 l -24,19 c 94,-8 329,-63 359,-133 -160,0 -170,-43 -314,-56 -2,-5 13,-25 0,-48 z m -2519,5825 c 72,11 67,4 113,-25 49,55 5,37 74,65 l 51,-133 c 41,69 18,69 82,101 -10,-136 -31,-229 -140,-265 -22,17 -172,195 -180,257 z m 485,-8014 c 30,-103 6,-22 78,-77 3,-2 7,-6 10,-8 3,-3 6,-7 9,-10 l 19,-22 c 42,130 8,197 134,234 l -48,-377 c -66,48 -36,65 -91,104 -74,-59 -36,-104 -100,-140 -42,86 -32,211 -11,296 z m 2364,5400 c 19,-38 210,-425 212,-433 97,28 130,155 204,214 -6,-85 -45,-167 -75,-242 -63,-159 40,-115 -61,-220 -94,35 -135,202 -171,311 -36,110 -95,264 -109,370 z m -2460,-5118 8,-112 c 56,28 79,57 138,89 -49,-125 -166,-254 -294,-317 -112,-55 -328,-128 -465,-141 21,21 -13,1 42,31 l 147,54 c 182,69 354,248 424,396 z m 1689,1370 128,-17 c 11,87 -23,123 -53,177 224,-316 660,-254 786,-309 -203,-178 -717,35 -861,149 z m -5310,-149 c 252,105 363,-81 776,295 -23,-51 -53,-87 -44,-158 l 129,10 c -141,-112 -667,-326 -861,-147 z m 2765,-1500 c -92,-33 -181,-86 -291,-104 l 39,36 c 132,101 429,232 515,320 116,119 85,65 162,124 -21,-83 -200,-244 -259,-308 l 319,107 c -8,-34 -189,-127 -219,-143 -79,-41 -149,-73 -229,-121 -133,-81 -296,-212 -422,-273 49,85 121,114 190,172 60,52 154,121 195,190 z m -3131,4562 110,38 c 6,149 -151,229 -198,312 l 115,-22 c -21,177 -220,296 -250,405 154,-43 336,-232 388,-394 27,-81 73,-223 47,-303 -25,-78 -123,-184 -197,-199 -16,65 -29,88 -15,163 z m 3085,4472 c -3,113 63,99 128,161 -60,135 -156,202 -68,398 138,-62 72,-344 227,-342 64,1 72,19 138,-35 -25,-54 -15,-20 -83,-52 -9,-102 113,-436 -16,-523 -45,73 14,201 -63,375 -75,171 -150,40 -263,18 z m 2878,-7234 c 21,11 -28,2 34,10 l 165,-11 c -96,183 -113,-21 -126,262 137,-8 292,-90 439,-102 151,-12 285,-70 428,-101 -176,-23 -537,58 -710,88 10,-34 123,-199 144,-219 51,-49 119,-61 179,-87 15,-7 22,-10 36,-18 36,-22 14,-7 35,-26 -267,10 -450,72 -624,204 z m -5252,146 c -175,-31 -530,-109 -710,-89 138,33 272,89 413,101 135,12 315,73 449,106 l 5,-152 c -71,-33 -87,-45 -127,-113 l 155,12 c 4,0 9,-1 13,-2 l 35,-12 c -206,-118 -316,-203 -634,-200 67,55 180,65 247,124 34,30 138,182 154,225 z m 5424,444 c 87,70 275,10 369,59 l -173,40 208,50 -139,26 171,47 -250,-4 c 74,30 201,47 256,91 -81,36 -219,18 -316,24 l 266,41 -63,57 c -19,18 -14,12 -26,28 l 184,41 -281,31 445,34 c -54,-141 -134,-96 -204,-172 74,-49 168,10 254,-37 l -244,-56 c 17,-30 70,-26 120,-74 -32,-63 -68,-26 -129,-86 17,-89 93,-48 64,-135 -73,-35 -216,-1 -319,-15 -74,-11 -19,9 -51,-35 -56,9 -107,22 -142,45 z m -5879,3 c -25,77 20,53 64,123 -57,95 -84,24 -133,95 53,64 67,25 123,73 -67,32 -185,21 -243,64 86,40 186,-11 254,35 -69,72 -181,45 -204,177 l 446,-37 -281,-29 187,-39 c -3,-2 -8,-13 -9,-10 l -38,-39 c -4,-4 -15,-13 -19,-17 -17,-15 -14,-11 -27,-26 l 268,-37 -320,-16 252,-99 -243,3 c 51,-20 74,-3 140,-35 l -108,-37 204,-40 c -15,-10 -9,-9 -36,-20 l -136,-34 c 99,-37 306,35 370,-72 l -153,-10 c -27,20 -85,16 -135,17 -77,0 -162,-14 -223,10 z m -1663,-248 c -73,-96 -199,-190 -369,-197 l 89,52 c 243,128 280,328 449,481 20,-200 -58,-248 -101,-403 291,211 27,689 582,950 -165,-181 -241,-255 -339,-570 -83,-262 -132,-498 -383,-561 z m 7329,3097 c -250,43 -448,-48 -657,-41 84,58 166,59 240,131 -27,82 -101,87 -20,190 117,152 151,129 350,434 12,18 25,39 33,50 l 46,48 c 74,-225 62,25 37,-292 -17,-213 -32,-139 -159,-228 171,8 269,92 424,119 -65,-98 -374,-226 -405,-374 83,-25 261,45 371,57 l -97,-80 c -89,-56 -245,-170 -291,-258 24,-56 -9,-18 66,-45 -59,-22 -73,-46 -134,-54 -360,-45 -256,-100 -405,-126 0,0 239,227 446,352 52,31 138,57 155,117 z m -5150,959 c 148,-42 295,-195 419,-224 -29,80 -136,209 -189,294 -84,139 -195,231 -208,295 143,10 244,-74 347,-2 -40,112 -245,79 -215,299 l 88,34 c -25,91 -102,144 -151,196 324,-69 257,147 467,56 133,-58 251,-199 343,-281 -121,38 -353,216 -484,201 -10,-76 106,-187 148,-213 -54,29 -164,92 -239,103 2,-115 131,-188 150,-296 15,-82 -20,-150 -11,-234 8,-71 50,-113 77,-172 -91,34 -130,90 -225,109 49,-173 291,-350 324,-505 -104,12 -135,65 -234,83 14,-110 123,-148 157,-245 -199,27 -304,196 -439,350 -38,44 -91,100 -125,152 z m 1823,-6327 c -36,-6 -58,-16 -83,-13 -50,5 7,-2 -32,10 -121,37 -171,12 -245,36 l 19,127 c -61,-43 -96,-104 -162,-131 l 54,135 c -84,-33 -131,-103 -217,-120 l 48,151 c -119,-16 -235,-76 -372,-58 33,61 47,6 81,117 -107,-20 -280,-41 -357,23 29,104 107,80 146,164 l -286,-25 c 52,102 168,119 200,221 -74,-19 -156,-42 -211,6 l 484,167 c -56,-126 -196,-147 -236,-253 187,-44 262,-18 412,30 -19,-122 -239,-242 -348,-250 l 319,60 c -23,-75 -67,-104 -78,-182 301,114 297,224 435,264 -19,-118 -90,-182 -114,-277 24,38 141,182 172,202 8,-86 -24,-125 -30,-210 68,51 78,118 146,160 l 18,-222 c 6,2 10,2 11,7 l 143,219 -19,-199 c 44,74 41,176 105,242 -9,-108 -47,-210 -34,-318 50,43 15,37 81,65 99,-61 64,-147 3,-202 -65,30 -1,-7 -53,54 z m 1916,145 c 64,-12 58,-26 97,-65 l -43,339 c 44,-75 77,-178 105,-272 l -12,206 c 16,-22 34,-14 84,-112 26,-52 30,-86 67,-116 7,66 -3,170 22,215 30,18 96,-113 145,-149 l -43,211 c 54,-30 154,-157 186,-200 -36,89 -100,163 -116,276 88,-26 138,-95 209,-150 51,-39 166,-82 226,-113 -17,78 -59,108 -80,177 l 314,-61 c -129,62 -326,102 -341,258 130,-51 260,-79 411,-28 -46,102 -165,117 -208,208 112,5 160,-29 257,-60 96,-31 219,-28 280,-52 -82,-56 -201,-44 -290,-20 11,-54 41,-74 82,-107 96,-78 86,-42 117,-106 -128,-10 -187,16 -223,15 -95,-1 -34,6 -64,-18 57,-46 119,-61 146,-144 -83,-70 -254,-36 -355,-24 6,-77 45,-55 74,-120 -154,0 -235,38 -367,64 l 53,-149 c -88,11 -138,79 -219,116 l 59,-135 -139,104 -12,-111 c -283,-2 -223,-50 -356,-21 -3,-4 -7,-15 -8,-12 -7,15 -14,-17 -17,-20 -20,-21 0,-5 -25,-21 -73,62 -99,121 -16,197 z m 859,7004 c -101,9 -201,-20 -293,4 14,87 102,130 155,182 42,40 139,128 121,212 l -245,-82 c 18,73 305,396 378,481 34,40 57,69 92,109 125,145 56,23 191,242 51,83 174,130 122,-83 -21,-86 -202,-275 -245,-374 l 169,61 c -92,-124 -203,-157 -286,-292 138,45 329,196 474,226 -172,-318 -611,-416 -687,-556 116,37 234,103 376,90 -13,-98 -326,-309 -391,-424 81,5 405,226 504,271 -49,-41 -114,-99 -162,-143 -65,-58 -91,-99 -161,-155 -58,-46 -104,-97 -193,-124 -69,-20 -218,-53 -285,-38 9,130 337,313 366,393 z m 1592,52 c -45,-63 -81,-173 -138,-232 -3,114 11,238 20,352 12,137 43,207 61,322 26,164 0,570 -44,714 l -62,-124 c -42,88 51,440 -93,328 -83,-65 -300,-811 -342,-943 -34,-108 -71,-260 -115,-358 -52,298 53,932 157,1183 80,192 147,320 145,562 0,149 -52,550 -8,665 7,-8 9,-7 20,-30 l 38,-144 c 37,-146 109,-491 159,-565 33,44 68,170 83,228 60,-102 19,-292 64,-407 l 157,-56 c 2,-146 -65,-767 -37,-825 18,15 6,-2 32,36 10,14 20,37 28,55 19,42 35,82 54,114 -10,-236 -123,-574 -106,-779 46,25 98,178 140,226 -17,-185 -85,-373 -69,-570 58,32 71,102 126,197 37,64 88,139 161,163 17,-42 18,-31 -3,-86 l -107,-244 c -27,-75 -86,-289 -123,-334 -14,36 -16,94 -32,142 -15,49 -36,99 -55,144 -25,59 -87,233 -111,266 z m -4591,1923 c -116,316 185,493 408,545 -101,-192 -343,-197 -336,-346 12,-235 328,-85 485,-167 59,-54 -11,-105 -102,-232 -63,-87 -270,-299 -418,-310 -186,-15 -167,-14 -319,-70 -66,-24 -253,-64 -272,-72 -102,-43 -142,-433 12,-549 37,-27 80,-38 124,-60 64,-31 58,-49 125,-75 l -22,166 c 56,29 64,29 124,34 l 9,102 c 54,-5 119,-50 145,-77 l 41,58 c 103,0 200,-49 286,-77 37,40 35,69 84,95 57,-28 68,-70 116,-117 24,74 12,128 50,181 102,-20 36,-63 150,-89 55,41 24,27 49,90 71,-25 41,-51 118,-88 80,45 23,55 100,95 33,-20 153,-103 172,-158 -376,-62 -160,-115 -339,-131 -188,-16 -74,-14 -168,-64 -50,-26 -33,-1 -79,-11 -77,-18 7,-10 -69,-39 -48,26 -165,111 -226,90 l -43,-40 c -2,-2 -6,-8 -7,-10 -2,-2 -5,-7 -8,-10 -71,75 -51,122 -116,152 l -49,-181 c -88,52 -27,92 -109,152 -19,-76 -33,-188 -76,-255 -71,-8 -54,4 -116,14 l -30,-74 c -247,65 -710,419 -501,856 178,371 520,479 807,672 z m -4915,2431 c -42,15 -79,23 -76,98 3,66 32,57 66,100 48,59 97,167 238,89 146,-81 21,-379 -228,-287 z m 1561,2318 c -31,63 -37,101 -40,179 -4,124 -41,44 -48,173 95,-7 225,-69 275,-115 123,-112 150,-113 142,-230 l -76,-45 c 29,-40 59,-78 97,-128 181,-238 -192,-339 -196,-107 -2,158 -41,48 -154,273 z m 5071,-1826 c 73,-25 163,-66 224,-76 95,-15 185,5 262,-35 6,-82 -1,-90 -76,-119 -170,-67 -263,-9 -449,57 -80,28 -411,199 -399,338 z m -560,3071 c 48,-48 101,-162 130,-238 10,-26 17,-47 24,-64 v 0 l 2,-4 v -1 c 3,-8 6,-15 9,-21 v 0 c 1,-2 2,-5 4,-7 v 0 c 1,-3 3,-6 5,-9 v 0 l 1,-2 v 0 l 1,-1 1,-2 v 0 l 2,-2 v 0 l 1,-1 1,-1 v 0 l 2,-2 1,-1 h 1 l 1,-1 1,-1 1,-1 h 1 l 1,-1 h 1 l 1,-1 h 1 v 0 l 2,-1 v 0 0 h 2 1 l 1,-1 h 1 1 1 2 v 0 h 3 v 0 0 h 2 v 0 h 2 1 l 1,1 h 2 1 1 2 v 1 h 3 v 0 l 3,1 v 0 l 3,1 h 1 2 l 2,1 h 1 l 3,1 h 1 l 3,1 v 0 l 4,1 v 0 l 4,1 1,1 3,1 h 1 l 3,1 2,1 h 2 l 3,1 1,1 4,1 h 1 l 4,2 h 1 l 4,1 2,1 3,1 3,1 2,1 4,1 h 1 l 5,2 h 1 l 6,2 v 0 l 5,1 2,1 4,1 3,1 4,1 4,1 2,1 5,2 h 2 l 7,2 v 0 l -1,1 v 0 0 1 0 0 1 0 1 0 1 0 1 0 1 0 1 0 1 0 1 0 0 1 0 0 1 0 0 1 0 0 1 0 0 1 2 1 0 0 1 0 0 1 0 0 1 0 0 1 0 0 c -14,315 -77,165 -213,300 -99,98 43,175 -70,378 -56,101 -78,68 -136,131 -57,62 -19,123 -39,207 -31,128 -260,134 -349,54 24,-129 152,-118 228,-204 54,-61 145,-194 92,-288 -78,-30 -135,13 -235,-30 9,-74 105,-157 154,-204 128,-123 54,-166 166,-197 z m 4390,-741 c 55,-21 56,-72 58,-77 85,32 227,63 253,-49 -4,-1 -9,-3 -12,-3 l -27,-5 c -154,-16 -188,42 -105,-183 148,30 -30,-23 160,-121 l 32,-18 c -83,-26 -170,-88 -204,-151 165,71 115,84 203,-51 107,0 215,-36 270,29 48,70 -93,30 48,268 37,63 17,71 50,134 39,76 45,24 38,151 -96,83 -110,-39 -133,190 -104,30 -106,77 -203,60 -102,-17 -85,-62 -181,4 -32,171 154,196 308,198 -42,83 -136,79 -247,82 -151,3 -111,31 -243,-41 -96,-52 -44,-107 -163,-153 -62,-24 -173,-81 -225,-86 2,147 141,136 81,311 -88,258 -400,302 -440,29 -11,-81 74,-232 109,-294 l -33,-7 c -44,-25 -27,-42 -64,-111 -126,-26 -183,28 -252,81 -15,-148 115,-51 157,-196 -49,-101 -194,-117 -316,-160 -76,-27 -102,-53 -84,-145 8,-39 30,-161 40,-191 93,31 117,176 220,227 177,88 142,-109 285,-118 53,146 -1,146 13,271 96,55 254,109 388,135 -31,-98 -49,-27 -52,-132 46,13 44,28 84,58 15,10 76,49 84,52 29,13 71,25 103,12 z m -344,-704 c -60,-250 255,-146 323,-358 73,106 150,157 13,287 -83,79 -223,127 -336,71 z M 8494,14495 c -164,168 -463,103 -294,-247 103,53 132,-43 206,73 35,57 69,121 88,174 z m 3867,-1433 c 0,-417 190,-544 345,-358 146,176 220,302 263,571 9,61 59,406 96,454 176,-224 394,-501 701,-547 264,-39 560,169 813,266 37,14 80,16 108,31 -76,228 -264,102 -441,348 -241,336 -264,818 -608,992 -477,243 -326,-570 -366,-884 -116,43 -209,448 -235,499 -135,257 -296,131 -390,-56 -124,-247 -286,-952 -286,-1316 z m -4436,-311 -45,-154 c -64,5 -123,26 -196,14 16,-56 -6,-14 42,-55 121,-106 110,-23 185,-76 -15,-58 -17,0 -62,-34 178,-131 120,-104 332,-15 189,78 226,27 426,46 l 1,80 c -129,-73 -101,-59 -227,4 -116,60 -119,79 -199,138 -184,-29 -118,-32 -257,52 z m 740,-2239 c -54,-69 -20,-76 -101,-142 18,-125 37,-85 82,-159 34,-56 32,-93 75,-158 48,-75 27,-81 125,-110 70,-20 109,-40 102,-128 -72,-93 -129,-46 -195,-101 l 11,-71 c 57,-31 153,-58 234,-57 108,169 184,205 384,141 92,100 74,201 -17,288 -223,214 -239,-156 -418,113 -55,-31 -73,-63 -170,-63 -53,63 -113,121 -86,222 20,73 44,167 -26,225 z m 612,-1188 c 1,2 4,6 6,8 14,12 -1,7 24,21 44,24 14,-9 56,12 1,113 -12,161 -61,232 -66,1 -120,-24 -150,-68 -70,-104 12,-35 -105,-114 l 13,-103 c 99,7 180,-17 217,12 z m 11007,-180 c 116,87 116,298 95,432 l -132,-28 c -48,-14 -15,-1 -40,-17 l 5,-203 c -32,-32 -103,-90 -155,-103 l 70,-107 c 86,-6 101,-15 157,26 z m -2576,4361 c 241,-148 465,-712 747,-917 155,-112 242,-314 337,-496 77,-146 151,-458 167,-645 45,-533 116,-919 245,-1408 35,-132 286,-694 375,-874 44,-90 75,-199 115,-281 72,17 140,-3 180,36 42,50 -173,323 132,333 -39,172 127,347 -30,478 l 28,29 c 10,19 8,-2 13,39 3,31 -3,45 -14,72 -14,35 -38,64 -57,110 -55,134 -111,34 -167,183 107,71 140,-15 255,-2 69,8 34,27 99,-9 105,-114 -73,-174 233,-168 95,143 59,116 210,216 66,44 48,67 83,133 26,47 59,71 90,113 1,79 -19,76 9,154 17,51 28,55 41,119 -174,-86 -157,-304 -421,-125 -171,-272 -275,-49 -322,-3 -43,42 -67,20 -122,58 8,107 37,90 48,123 l 13,116 c 20,89 -31,195 12,312 71,20 107,25 138,-54 17,-44 21,-118 51,-157 71,31 116,79 88,180 -18,68 -64,123 -105,160 -48,44 -82,129 -20,187 43,39 150,23 220,45 27,-39 81,-176 200,-220 l 151,299 c 23,-30 15,-23 52,-38 44,-19 16,10 60,-26 76,-62 26,-153 217,-44 80,46 44,21 71,81 38,84 75,177 25,292 -64,144 -134,23 -25,220 -108,-46 -348,-353 -395,-125 -38,180 35,331 145,427 127,110 204,53 165,301 -61,32 -83,50 -125,92 -52,51 -46,90 -129,65 -62,-91 -19,-172 -42,-279 -19,-88 -79,-104 -119,-179 -41,-78 -35,-168 -89,-227 -73,-78 -120,-11 -163,-138 33,-45 13,-12 42,-42 21,-23 23,-14 34,-50 39,-124 -118,-227 -231,-240 -35,48 -49,51 -56,122 -128,-13 -106,52 -162,119 -38,45 -99,82 -122,165 -59,221 220,136 341,129 5,173 50,258 159,310 l -77,83 c -32,-55 1,-30 -44,-63 -3,3 -6,8 -7,10 -2,3 -6,8 -8,11 -2,2 -5,7 -7,10 l -28,37 c -93,113 -87,176 -133,179 -98,-22 -91,-37 -127,-157 -45,-154 2,-48 31,-140 l -49,-22 c -83,-40 -157,-76 -209,-161 79,-218 121,-75 123,-384 1,-135 117,-286 -44,-343 -212,-74 -179,154 -176,295 4,210 -172,118 -254,232 22,93 109,69 186,115 -9,95 -89,134 -50,220 45,101 85,5 75,217 -153,21 -323,-14 -373,117 87,4 218,-5 179,107 -20,57 -30,31 -79,64 l -67,60 c 98,53 44,88 129,122 -67,44 -51,83 -118,120 -4,2 -19,10 -22,11 -2,2 -9,10 -11,7 -2,-4 -7,3 -11,6 99,90 125,87 284,97 -77,266 158,210 212,63 42,-109 -46,-301 1,-466 64,16 156,72 201,108 56,44 86,96 152,145 9,167 -5,264 189,252 75,-85 87,-110 46,-233 -43,-127 -4,-148 65,-209 32,10 24,22 49,43 3,2 7,5 10,7 20,16 35,25 59,43 64,49 65,46 165,46 254,-1 105,58 349,1 33,97 66,133 43,263 -51,-6 -43,-4 -98,-1 -76,4 -54,-7 -113,-11 -46,-3 -75,8 -104,28 l -81,62 c -3,-131 16,-166 -79,-227 -117,-39 -348,136 -149,254 98,59 36,127 104,179 57,44 153,6 228,39 29,87 16,177 74,242 44,49 137,79 176,141 -28,62 -115,101 -163,199 l -244,-158 c -62,-41 -18,10 -42,-56 -25,-65 -34,-171 -106,-199 -85,-33 -187,-4 -226,64 -11,19 -23,49 -33,69 -55,116 -85,153 -80,302 -62,0 -120,-4 -170,-23 -81,-32 -56,-30 -107,-81 8,-54 31,-89 32,-136 3,-74 -20,-55 -41,-115 l 183,-213 c 77,-93 53,-219 -69,-235 -176,-25 -208,28 -293,106 -76,70 -126,122 -193,205 l -197,2 c -241,1 -245,128 -117,154 49,10 30,-3 84,16 41,14 176,33 186,66 -2,252 -32,226 160,336 121,69 164,203 258,227 178,45 157,-153 337,-22 84,62 34,78 80,169 37,75 80,50 157,80 l -2,121 c -150,5 -169,-86 -316,-35 -84,262 351,213 499,167 l -26,234 c -29,22 -35,-12 -87,-19 -44,-7 -83,-1 -116,8 -60,121 14,80 -8,180 l -208,1 c -172,-234 -169,-212 -418,-214 l -36,-174 c 255,-167 -109,-224 -115,-226 -35,-144 -52,-173 -99,-297 -46,-122 -62,-147 -196,-187 -213,-64 -137,-40 -316,19 -81,27 -210,-57 -259,102 189,-37 358,-13 424,145 42,100 15,157 97,204 99,57 126,13 189,114 -5,69 -38,87 -55,153 -76,-74 -104,-18 -214,1 l -36,-52 c -23,-24 -20,-20 -49,-34 -36,-19 -80,-33 -112,-55 -83,-57 -71,-123 -169,-148 -172,62 -82,229 -165,349 -189,11 -37,-182 -341,-149 31,91 314,372 165,494 -134,110 -285,-59 -348,-154 -13,-20 -21,-36 -39,-61 -16,-21 -11,-13 -25,-29 l -19,-19 c -34,139 -72,96 -170,161 -118,79 -261,210 -337,329 -47,74 -109,114 -225,96 -105,-128 -56,-125 -113,-237 -62,28 -105,50 -137,67 v 1 l -5,2 -1,1 -3,2 -2,1 -5,2 v 1 l -5,3 -4,2 -1,1 -2,1 -2,1 -2,1 -2,2 h -1 l -3,2 -1,1 -3,2 -3,2 -1,1 -3,2 v 0 l -3,2 h -1 l -2,2 -3,3 c -5,4 -10,8 -13,12 h -1 c -17,18 -19,32 -39,56 v 0 1 l -3,3 v 0 l -3,3 v 0 l -2,2 -1,2 -1,1 c -2,2 -4,4 -6,7 v 0 l -4,4 h -1 l -2,2 -1,1 -2,2 -3,3 -1,1 -4,3 -1,1 v 0 l -4,4 -1,1 -1,1 -5,4 -6,5 h -1 l -1,1 -5,5 c -70,55 -141,29 -206,62 -58,30 -105,91 -195,20 -155,-122 75,-269 127,-323 l 1,-1 v 0 0 l 1,-1 1,-1 v 0 l 1,-1 1,-1 v -1 h 1 l 1,-2 h 1 l 1,-1 1,-1 v -1 h 1 l 1,-2 1,-1 h 1 l 1,-2 1,-1 h 1 l 1,-2 1,-1 1,-1 1,-1 2,-2 v 0 l 2,-2 1,-2 v 0 l 2,-2 2,-2 v 0 l 2,-1 2,-2 v -1 l 2,-2 1,-2 h 1 l 1,-2 2,-2 h 1 l 1,-2 2,-2 1,-1 2,-2 2,-2 1,-1 1,-1 2,-3 1,-1 1,-1 2,-2 3,-3 2,-2 1,-2 1,-1 2,-2 2,-3 h 1 l 2,-3 2,-2 v 0 l 3,-3 2,-2 v -1 l 3,-2 2,-3 v 0 l 2,-3 3,-2 v -1 l 2,-2 5,-6 2,-2 3,-3 2,-3 1,-1 2,-2 2,-3 2,-1 1,-2 2,-2 2,-2 1,-1 2,-3 2,-2 1,-1 2,-3 c 57,-67 110,-138 101,-159 -1,-3 -4,-9 -5,-11 -2,-4 -7,-16 -8,-20 -6,-33 21,-74 36,-109 80,-187 109,-370 124,-574 12,-149 38,-260 68,-401 27,-123 74,-252 93,-365 104,38 -88,-44 36,21 155,81 159,-89 284,-342 124,-248 99,-244 290,-396 z M 9060,9167 c -44,-145 -47,-267 46,-362 26,-27 97,-72 140,-95 91,-51 89,-1 84,94 -50,40 -185,91 -55,270 63,87 114,80 -215,93 z m 3385,7614 v -1 l 2,-1 2,-2 z M 19212,5698 c 137,36 93,172 251,175 164,3 100,-168 237,-192 42,147 -111,315 -201,357 -73,35 -596,-40 -379,-247 43,-40 55,-66 92,-93 z m -8966,-280 c 24,33 34,131 16,177 -54,142 -628,227 -689,-261 l 54,-28 c 112,182 44,56 133,167 198,248 284,-20 322,-81 58,-7 130,-21 164,26 z m 9763,-1361 c -46,-142 35,-450 113,-529 24,-25 375,-171 451,-215 560,-319 1068,-688 1539,-1093 223,-192 533,-335 876,-440 802,-247 2626,-527 3469,-223 301,109 609,319 680,636 86,383 -150,735 -300,986 -124,210 -266,397 -398,601 -153,239 -79,152 -275,375 -153,175 -271,383 -428,554 -162,178 -578,745 -778,871 -179,114 -317,343 -520,481 l -379,287 c -464,313 -795,521 -1431,542 -309,11 -565,-71 -861,-146 -87,-22 -177,-31 -193,-127 l 132,-20 c -34,-80 -129,-175 -121,-239 140,6 355,128 549,149 l -42,-37 c -60,-43 -129,-57 -194,-88 l -79,-57 c 165,10 102,2 157,-27 51,-27 101,-16 170,-11 520,36 554,-21 1022,-55 -78,-41 -216,-28 -276,-98 49,-32 103,-35 166,-55 -63,-60 -194,-58 -170,-168 128,-104 494,1 617,-108 -115,-67 -296,-45 -444,-56 17,-10 358,-143 382,-148 121,-29 331,-16 424,-121 -399,21 -1142,259 -1487,155 20,-49 222,-199 277,-236 108,-74 213,-110 356,-144 134,-32 252,-106 396,-98 145,7 297,48 432,55 -68,-19 -260,-49 -313,-109 143,-82 406,-11 572,0 -114,-163 -284,-117 -360,-183 37,-32 84,-33 132,-30 48,3 82,7 132,5 -73,-7 -181,-30 -236,-73 98,-47 296,-25 418,-28 l -319,-174 c 90,-62 304,-38 438,-60 -97,-40 -170,-38 -276,-41 -193,-5 -398,-95 -585,-114 -97,-10 -225,13 -312,-18 82,-72 282,-57 387,-77 -50,2 -117,-15 -174,-23 -26,-4 -63,-8 -86,-14 -19,-5 -21,-6 -38,-14 -34,-17 -17,-8 -31,-22 157,-107 452,-46 594,-200 -111,-64 -299,17 -420,16 89,-74 382,-146 515,-231 147,-95 290,-202 432,-302 213,-150 562,-266 842,-210 166,32 139,-31 291,70 61,-35 122,-77 154,-160 l -233,50 c 35,-71 135,-123 202,-221 -188,44 -185,107 -446,125 27,-49 2,-15 44,-49 104,-84 294,-113 375,-204 -60,-25 -158,2 -224,21 -37,11 -82,29 -116,36 -163,29 -116,-110 43,-175 106,-44 149,-26 259,-44 152,-24 162,-206 397,-206 2,88 -28,212 -26,251 3,97 -33,137 -12,182 61,-22 38,-33 75,-107 34,-70 160,-281 216,-317 61,-38 441,-2 625,-87 -21,-22 1,-8 -30,-22 -74,-36 -180,-10 -255,-48 52,-82 187,-72 251,-155 l -183,4 c -48,-63 0,-31 -33,-100 -151,-16 -297,66 -454,70 22,-83 125,-145 167,-204 -144,11 -270,105 -467,107 27,-60 -8,-21 61,-66 l 202,-116 -78,-12 c -5,1 -53,19 -63,23 -114,41 -256,106 -380,112 67,-67 158,-98 230,-165 l -185,47 45,-89 c -201,24 -554,280 -688,293 26,-48 52,-63 72,-111 -96,10 -315,145 -414,192 -123,59 -367,107 -519,111 56,-123 297,-170 320,-287 -180,19 -472,214 -609,208 35,-86 107,-107 158,-175 -150,38 -354,189 -514,196 34,-68 82,-97 115,-167 -57,23 -82,56 -142,72 -75,20 -107,-2 -178,39 -83,50 -114,146 -222,185 33,-75 70,-96 89,-196 -112,22 -164,274 -346,205 l -19,-157 c -100,232 -49,225 -185,280 -58,23 -89,60 -140,93 -139,90 -294,175 -420,280 -63,53 -220,138 -212,226 128,42 363,-71 511,-83 -87,132 -496,265 -622,316 l 381,-23 c -114,83 -325,84 -424,162 106,46 308,0 429,3 -114,57 -462,43 -576,97 99,70 400,-1 538,9 l -290,76 c -89,14 -250,15 -318,65 126,64 398,-2 480,50 -76,93 -317,79 -442,121 99,48 232,17 321,46 -70,72 -329,67 -434,90 138,33 216,21 351,32 -36,65 -52,58 -146,76 -34,6 -68,11 -99,18 -25,6 -29,6 -50,16 -24,10 -19,9 -28,18 58,27 134,28 183,66 -82,137 -268,36 -346,134 70,47 156,46 225,83 -20,75 -3,67 -82,70 -127,5 -247,-47 -372,-56 l 49,42 c 77,52 270,105 302,177 -84,39 -540,-184 -679,-202 49,61 441,305 537,335 l -79,40 300,153 c 21,13 20,14 33,24 -240,-25 -707,-222 -823,-349 l 180,50 c -24,-47 -579,-488 -596,-533 -28,-79 158,-222 206,-276 71,-78 155,-158 204,-249 -34,42 -194,172 -252,218 -86,68 -189,150 -314,95 z m 330,3303 c 118,-113 194,-227 333,-334 96,-74 101,-52 244,-30 95,15 185,26 279,38 378,48 819,98 1205,69 195,-15 370,-48 544,-104 522,-170 564,30 1401,-549 643,-444 1189,-994 1671,-1611 l 833,-1115 c 248,-354 660,-852 632,-1339 -33,-577 -267,-661 -683,-953 -795,-557 -2149,-302 -3036,-162 -660,105 -1243,252 -1717,649 -535,447 -1355,1097 -2016,1290 -31,-20 -220,-176 -248,-209 -28,-31 -55,-89 -84,-132 -212,-320 -828,-593 -1177,-806 C 17360,1355 17014,861 15538,670 l 55,-194 c -134,122 -61,201 -349,215 12,-101 64,-137 67,-234 -76,31 -107,114 -168,148 l -51,-326 -39,249 c -73,-21 -41,-17 -97,-83 -33,-40 -43,-55 -101,-78 l 45,226 c -148,-34 -233,-178 -335,-206 24,60 57,100 51,186 -90,-7 -135,-68 -216,-96 l 11,124 c -82,16 -187,-22 -264,-39 -31,47 39,-12 17,58 -125,35 -649,8 -852,33 -559,68 -1175,626 -1739,858 -408,169 -930,268 -1264,486 -309,201 -679,576 -827,909 C 8384,2860 8076,2039 7226,1526 6761,1245 6467,1174 5854,1080 5046,956 4187,826 3372,975 c -772,142 -1289,620 -1289,1428 0,671 1197,2372 1602,2913 549,734 1375,1705 2814,1705 285,0 516,-44 767,-122 51,-15 689,-150 719,-151 92,106 252,221 364,318 244,213 483,408 653,714 126,228 52,517 -121,701 -184,195 -189,479 -306,710 -29,55 -97,178 -133,217 -47,50 -134,95 -190,143 -98,84 -233,368 1,426 -24,60 -30,88 -53,151 -19,53 -55,68 -76,114 -63,141 67,175 128,239 -95,179 -430,74 -444,399 -5,130 24,140 43,234 -335,159 -140,301 -266,469 -173,233 -63,312 58,482 -22,44 -73,90 -111,131 -322,343 -143,338 -143,450 -1,83 -92,58 -43,368 9,59 18,140 48,187 30,44 32,23 57,59 26,39 -2,29 38,78 101,1 69,-30 141,-55 87,357 107,208 213,379 -99,116 -311,174 -282,400 10,78 67,207 104,251 68,82 145,47 243,21 -8,112 -92,205 -93,312 -2,133 111,141 211,189 70,34 48,55 69,131 23,82 55,82 70,134 22,70 -8,117 -50,144 -66,44 -85,16 -119,86 -70,163 92,304 148,369 106,121 38,59 168,90 42,10 59,50 182,76 9,152 -17,159 64,279 -26,56 -114,153 -118,218 -6,118 63,149 150,191 94,45 112,114 225,121 148,9 173,-14 231,103 -35,87 -94,78 -101,190 23,13 34,18 67,28 93,29 71,65 145,140 116,118 205,43 290,95 33,20 11,20 50,49 41,29 36,12 64,36 24,22 50,83 73,109 85,93 183,38 292,92 69,34 111,128 215,167 135,51 222,-23 308,76 185,212 321,148 522,28 38,190 272,302 510,303 206,0 405,84 583,25 108,189 247,137 450,108 63,61 91,82 160,143 49,44 93,114 155,145 176,87 324,-57 474,-88 60,95 257,122 381,72 108,-44 36,-71 174,-32 188,52 325,247 531,104 112,-78 264,-51 430,-70 43,303 305,188 546,80 69,-30 105,-70 165,-104 135,60 233,272 416,136 166,-123 40,-194 349,-284 262,-77 180,216 451,172 196,-32 160,-278 140,-431 69,64 128,63 241,79 47,135 142,238 335,202 164,-30 167,-193 249,-267 48,-9 200,-15 253,-17 177,-3 432,180 407,-306 41,-6 99,-30 134,-20 37,10 37,39 96,48 82,12 104,-58 254,-33 268,43 271,-78 313,-299 208,0 352,120 489,-49 70,-86 43,-98 146,-154 118,-65 68,-63 132,-167 50,-80 108,-37 181,-119 84,-94 26,-120 74,-225 29,-63 95,-112 133,-167 82,-117 248,-192 314,-287 128,-185 271,-341 317,-583 40,-207 104,-243 196,-403 43,-74 47,-172 15,-259 -43,-117 -114,-37 -100,-195 233,-91 192,-31 310,-337 100,-260 114,-241 3,-496 90,-222 103,-178 103,-467 1,-348 -162,-310 -134,-416 95,-161 262,-100 232,-433 -16,-173 29,-163 40,-299 32,-401 -95,-379 -91,-583 16,-784 -149,-618 -232,-767 -18,-127 -7,-170 -68,-264 -52,-81 -72,-98 -95,-238 -55,-329 -234,-230 -259,-387 -34,-209 -93,-354 -98,-560 -6,-244 1,-348 -110,-536 -56,-93 -34,-160 -77,-257 -68,-152 -306,-171 -343,-324 -35,-145 -84,-115 -94,-216 -19,-198 -93,-125 -111,-234 -8,-51 40,-184 46,-269 21,-286 68,-227 252,-402 z"
   id="path57" />
  </g><path
       class="fil1"
       d="m 12361,13062 c 0,364 162,1069 286,1316 94,187 255,313 390,56 26,-51 119,-456 235,-499 40,314 -111,1127 366,884 344,-174 367,-656 608,-992 177,-246 365,-120 441,-348 -28,-15 -71,-17 -108,-31 -253,-97 -549,-305 -813,-266 -307,46 -525,323 -701,547 -37,-48 -87,-393 -96,-454 -43,-269 -117,-395 -263,-571 -155,-186 -345,-59 -345,358 z"
       id="path61" /><path
       class="fil2"
       d="m 17778,16189 c -370,25 -415,-314 -604,-68 -72,94 -76,222 -209,233 -117,9 -330,-82 -414,-7 -22,26 -16,-38 -17,46 -2,127 197,226 286,277 99,55 304,210 252,383 -162,123 -356,-92 -503,-86 -30,90 32,187 78,245 3,-1 9,-9 11,-6 2,5 15,-8 23,-11 125,-48 242,37 345,85 189,88 230,-40 269,-187 43,-159 55,-287 -30,-419 -92,-141 120,-237 231,-228 34,50 35,127 51,181 117,14 81,-39 205,-36 40,86 64,285 -6,380 -56,-92 -9,-207 -206,-67 -108,77 -65,151 -94,305 -93,497 310,438 337,423 103,-73 12,-187 131,-240 116,-52 157,-39 230,-135 49,-65 103,-184 63,-290 -38,-97 -148,-111 -263,-123 177,-159 292,-130 264,-348 -10,-77 -41,-69 -72,-143 -64,-151 18,-192 -153,-263 -47,-20 -265,-86 -314,-89 -3,80 83,121 109,188 z m 2028,-9835 c 0,0 343,154 424,247 63,71 -144,-113 -413,-163 47,43 100,109 120,202 0,0 -66,-108 -160,-145 -1,6 -1,13 -2,21 -11,178 10,247 26,291 57,39 123,102 197,200 0,0 -89,-64 -194,-102 -1,4 -3,8 -5,12 -83,192 -6,256 -4,416 -39,14 19,15 -19,-9 -45,-30 25,-33 -8,-8 4,709 -203,1227 -535,1770 -76,124 -372,804 -416,933 -178,525 -87,1070 -254,1578 -165,498 -509,631 -829,976 18,-223 165,-450 52,-1047 -30,-159 -172,-821 -240,-922 -29,55 -18,120 -49,177 -46,85 -47,42 -20,168 63,290 -21,894 -93,1169 -65,250 -351,1065 -452,1280 -247,525 -471,602 -499,816 -56,429 105,682 -180,1120 -23,36 -66,97 -95,121 l -105,112 c -30,45 -32,30 -62,55 -698,600 -2528,730 -3254,267 -168,-108 -478,-402 -575,-575 -92,-165 -224,-472 -262,-655 -18,-85 -2,-126 -25,-208 -90,-321 -123,-410 -72,-748 16,-106 22,-312 24,-420 -73,56 -69,135 -162,181 -134,-64 -80,-270 -112,-402 -41,-10 -57,89 -122,120 -29,-25 -1,21 -30,-40 -23,-45 -22,-105 -28,-155 -22,-173 -120,-465 151,-450 27,73 56,115 77,173 30,82 -14,115 5,219 l 92,-84 c 152,42 112,107 351,80 49,294 72,884 138,1131 25,91 96,226 104,304 7,68 2,57 46,146 23,46 47,93 69,131 248,431 531,427 657,598 l -201,-62 c 96,231 667,290 969,296 158,3 418,-25 578,-49 107,-16 144,-43 230,-84 38,-17 70,-28 111,-39 24,-6 46,-9 69,-16 l -208,14 c 34,-45 149,-148 195,-191 66,-62 115,-109 191,-176 126,-110 315,-194 437,-300 -406,6 -872,654 -1390,714 -187,22 -462,39 -620,-28 136,-4 229,-18 352,-57 134,-43 100,-51 239,-161 72,-56 296,-337 363,-437 105,-156 170,-373 267,-533 100,-165 478,-476 701,-478 190,-3 156,-33 356,9 192,40 520,-28 683,-89 164,-61 347,-234 431,-369 164,-261 -20,-530 -226,-386 74,41 115,6 152,86 -58,64 -191,61 -266,114 68,37 99,2 140,83 -55,101 -167,56 -262,121 23,37 34,37 73,64 -133,101 -265,79 -437,60 -210,-24 -311,20 -450,-88 l -29,25 c -71,41 -171,-113 -250,-124 -207,-28 -194,-110 -260,-98 -36,6 -27,26 -71,44 -59,-31 -54,-53 -103,-84 -69,-43 -57,7 -106,-66 -5,31 -6,61 -17,86 -25,54 -14,28 -40,44 -71,-56 -43,-127 -115,-203 -101,-107 -107,-210 -26,-339 39,-64 68,-305 24,-374 -47,12 -26,-3 -66,50 l -56,109 c -2,3 -5,7 -6,11 l -129,272 c -47,97 -28,55 -130,108 l -22,-87 c -1,-6 -4,-8 -7,-11 -46,32 -53,28 -114,49 -59,20 -61,33 -113,55 -84,35 -206,32 -302,19 -79,-11 -193,-36 -272,-58 -127,-35 -118,-30 -157,-96 -58,-101 -201,-37 -364,-92 l -7,-80 c -191,-34 -190,9 -345,18 14,-15 11,-13 29,-29 l 90,-61 c 95,-62 258,-198 349,-233 l -306,99 c 17,-53 30,-48 60,-77 -256,100 -687,659 -865,433 -61,-78 -32,-214 -28,-317 4,-112 -30,-198 -42,-312 -61,-581 54,-1264 351,-1722 146,-225 483,-582 598,-791 -154,33 -480,380 -613,510 -77,76 -103,202 -239,189 -131,-12 -82,-4 -185,33 39,-139 158,-267 204,-400 -35,52 -83,110 -125,166 -45,60 -87,116 -164,137 33,-176 201,-381 220,-567 -16,54 -130,266 -161,307 -56,75 -189,148 -319,120 l -24,-96 c -53,89 -99,222 -213,229 l -12,-329 c -65,44 -72,99 -130,124 -40,-146 47,-363 15,-527 -110,38 -103,140 -107,271 -3,85 -21,288 -10,360 27,181 270,-112 150,348 -93,358 236,39 288,15 2,101 -55,272 -1,349 23,15 -27,21 36,6 88,-21 103,-150 193,-181 35,90 26,353 11,453 -25,159 -13,282 -18,442 -5,152 -31,289 -32,450 -1,179 -3,246 -92,370 -177,-58 -101,-99 -184,-183 -34,41 -48,113 -62,166 -119,-50 -102,-279 -156,-381 -30,52 -16,125 -16,192 -62,-59 -252,-313 -264,-398 -28,-189 -49,-436 -45,-626 l -19,23 c -50,72 -69,176 -113,246 -12,-362 -155,-762 -256,-1109 -119,-406 -166,-451 -13,-843 35,-91 39,-178 59,-268 -95,7 -108,25 -177,57 l 83,-491 c -76,58 -108,176 -182,213 -25,-166 15,-348 -61,-493 -79,-149 -12,-293 -37,-452 -26,79 -49,215 -128,248 -49,-149 -73,-522 -132,-631 -41,-76 -47,-20 -97,-104 -94,-157 -86,-290 -97,-467 -70,50 -97,197 -171,267 3,-196 96,-312 122,-466 -79,27 -50,56 -112,108 -36,31 -92,40 -139,56 24,-146 219,-257 255,-422 -211,16 -205,62 -317,165 l -184,168 c -22,21 -40,28 -47,46 31,-171 242,-304 348,-430 39,-46 117,-81 148,-128 -115,8 -249,-13 -319,1 82,-95 160,5 298,-64 30,-54 2,-23 7,-41 27,-93 116,-21 74,-267 l -348,8 c 53,-26 131,-32 200,-49 82,-20 77,-47 153,-72 l 23,-253 161,236 c 77,77 233,113 361,101 566,-51 477,-236 534,-312 47,33 86,107 60,192 -20,67 -93,87 -152,115 -178,88 -156,124 -388,115 -25,58 6,53 -46,83 l -93,26 c 55,25 97,60 169,65 l 35,-78 c 87,-4 15,-20 77,31 66,-171 514,-236 675,-153 96,48 231,189 297,239 -26,-63 -39,-63 -50,-138 70,14 77,35 123,78 35,31 63,47 113,74 -36,-333 -455,-273 -532,-454 -22,-51 -19,-96 -9,-148 14,-71 2,-82 36,-130 l 84,-97 c -171,66 -232,286 -311,90 l -102,-213 c -33,-81 -15,-11 -64,-87 -38,-57 6,-51 -72,-69 -76,21 -14,50 -135,76 l 44,-143 c -79,-20 -130,33 -222,50 l 38,-149 c -49,17 -70,52 -130,72 6,-62 30,-115 6,-158 -58,2 -17,-20 -58,35 -29,39 -30,47 -60,77 11,-83 17,-104 -28,-179 -34,45 -60,113 -114,147 l 55,-229 c -58,66 -85,190 -165,230 l -31,-123 c -156,110 -123,204 -237,199 l 27,-153 c -90,26 -106,82 -149,163 -42,78 -63,103 -141,143 -16,-23 -4,-75 -22,-98 -34,52 -96,127 -151,118 -44,-6 1,-49 -94,11 -42,26 -35,33 -84,52 17,-82 60,-131 65,-195 -73,10 -123,75 -181,107 l 297,-323 c -55,9 -229,94 -306,122 l 514,-355 c 193,-133 241,-157 454,-80 121,45 76,6 125,84 68,-9 36,-20 103,-39 34,38 41,40 88,55 -128,-138 -89,-91 -282,-167 -143,-57 -252,-57 -417,-28 40,-402 231,-316 333,-396 -30,-26 -19,-15 -47,-27 -16,-7 -22,-8 -38,-14 l -25,-9 c 48,-109 115,-85 96,-336 l -54,125 c -125,-30 -197,-204 -304,-252 44,120 130,204 173,304 -43,-42 -80,-63 -142,-124 -138,-134 -267,-323 -412,-431 29,100 147,337 204,388 74,67 100,19 173,127 198,293 12,373 -235,463 -83,31 -30,24 -80,69 -53,48 -152,62 -220,84 -52,17 -66,23 -95,-6 l 99,-60 c 54,-28 49,-7 105,-29 l 58,-41 c 2,-2 6,-5 9,-7 50,-39 96,-59 131,-105 -156,27 -565,205 -712,148 4,-51 -4,-37 64,-61 81,-28 198,-46 257,-105 -156,-2 -299,58 -481,46 32,-40 125,-66 190,-79 -65,-42 -169,-28 -238,-68 32,-59 119,-59 175,-91 55,-32 21,-1 46,-45 -62,-10 -152,-14 -211,-40 -74,-32 -27,-6 -51,-40 31,-45 -6,-19 61,-47 59,-26 139,-25 190,-70 -80,-30 -186,-25 -269,-58 -14,-5 -22,-9 -34,-17 -24,-14 -15,-10 -31,-25 17,-16 0,-7 31,-24 17,-8 25,-7 42,-11 l 11,32 c 14,25 -26,7 15,12 3,-3 5,-8 6,-10 36,-49 70,-41 129,-78 -147,-67 -394,-101 -506,-221 65,-39 201,26 286,25 -59,-1 -147,-39 -196,-68 0,-3 2,-7 3,-9 0,-1 1,-7 2,-9 1,-1 2,-6 3,-8 l 19,-37 c -85,-44 -184,-61 -209,-166 l 194,6 c -52,-69 -391,-202 -18,-212 -23,-79 -13,-43 -71,-89 -81,-65 -133,-150 -197,-219 -57,-60 -79,-82 -128,-156 -48,-71 -73,-105 -152,-135 l 123,322 c -78,-98 -148,-165 -232,-243 -82,-77 -110,-227 -240,-263 5,66 19,90 -8,147 -104,-24 -111,-187 -205,-229 l 52,208 c -92,-42 -209,-274 -338,-296 l 92,148 c -120,-53 -194,-134 -292,-192 -32,-19 -334,-101 -381,-107 55,92 149,123 202,249 -113,-55 -114,-142 -251,-195 -71,-27 -280,-119 -314,-123 31,72 76,73 97,163 -129,-17 -275,-184 -414,-211 35,53 199,176 263,231 -110,-26 -261,-127 -384,-174 -117,-44 -145,-14 -260,-23 -88,-7 -147,-45 -236,-55 55,76 144,87 193,177 -188,-16 -325,-128 -466,-150 43,42 70,65 128,109 52,40 105,73 133,123 -232,-42 -432,-286 -679,-199 77,76 200,119 280,193 -152,-14 -295,-75 -468,-87 -129,-9 -389,-5 -481,55 62,46 132,49 206,110 -111,33 -220,-23 -297,4 79,24 280,88 295,163 l -188,1 c 111,147 424,251 619,285 101,18 189,1 228,70 -25,19 5,3 -36,16 -11,3 -28,6 -40,8 -24,4 -50,7 -74,12 106,124 112,47 236,111 70,35 138,122 87,203 -16,13 -328,-10 -412,32 l 286,30 c -128,55 -399,69 -456,93 75,52 378,102 503,190 -82,15 -156,-17 -206,21 69,68 379,73 566,203 l -213,-9 c 76,82 219,48 316,82 44,16 246,88 272,105 l -292,11 c 132,26 349,24 445,115 l -129,36 c 734,84 603,140 1117,353 62,25 130,42 198,53 57,8 152,-2 198,34 -105,75 -628,155 -743,67 39,-50 96,-41 154,-84 -68,-36 -365,-13 -488,-85 73,-35 181,-15 251,-57 -94,-1 -169,15 -265,21 -236,14 -562,-120 -688,139 139,23 310,-43 462,-36 -58,58 -183,76 -262,119 l 345,-16 c -30,81 -166,119 -226,203 l 300,-59 -346,195 c 71,6 138,-23 215,-31 86,-9 144,10 224,25 172,32 326,12 498,21 -35,61 -300,125 -371,170 -66,42 -78,76 -149,118 l -66,36 c -44,27 -63,32 -74,85 317,65 381,-115 803,29 223,76 473,129 670,232 -44,-93 -135,-181 -186,-271 92,20 254,210 339,258 l -67,-214 c 65,50 204,228 198,313 -558,134 -506,-47 -872,-55 82,48 222,77 271,152 -157,-4 -227,3 -293,-49 l -17,-10 c -31,69 39,32 -44,55 -194,55 -554,-30 -662,185 l 412,6 c -46,82 -166,81 -234,142 l 348,-6 c -30,79 -53,35 -63,110 101,34 211,-3 316,4 -20,67 -37,55 -32,130 94,35 214,-26 319,13 -14,82 -77,60 -88,156 123,10 329,-139 476,-163 -46,71 -129,102 -176,200 80,-6 317,-172 393,-217 276,-164 283,-28 480,-35 -132,-85 -181,-183 -270,-303 40,52 188,154 283,197 104,48 255,106 375,105 53,-243 -83,-193 -186,-333 73,31 212,145 260,196 114,121 138,89 302,148 -110,37 -536,150 -619,251 l 449,-96 c -21,29 -2,8 -28,31 l -84,51 c -104,58 -258,118 -322,216 l 443,-115 c -70,100 -168,113 -217,240 92,-11 253,-112 331,-69 -48,185 -690,321 -938,354 -381,51 -802,-20 -1143,-118 C 5041,6404 4390,5640 3862,4889 3378,4201 3013,3652 2632,2887 c -74,-148 -143,-275 -188,-445 -111,-413 94,-758 332,-913 262,-171 642,-245 1007,-277 790,-69 1602,79 2356,194 604,93 1109,338 1552,714 62,53 111,99 170,147 120,98 218,211 339,310 578,472 522,530 1315,619 l 14,-36 c 34,-95 91,-166 154,-246 67,-84 132,-158 202,-231 139,-145 280,-286 464,-403 335,-213 866,-318 1266,-483 378,-156 773,-419 1118,-632 636,-392 1057,-156 1474,-258 -11,-39 -8,-28 -38,-55 100,4 175,54 273,39 18,-65 4,-72 -14,-126 99,25 131,83 219,97 21,-119 -30,-114 -42,-190 131,54 186,175 333,208 l -37,-227 c 109,40 82,116 189,166 l 35,-227 c 50,78 39,215 58,302 73,-55 74,-110 176,-147 l -75,230 c 284,-3 226,-124 353,-211 l -57,181 c 98,52 714,133 896,187 674,199 1429,813 2021,1178 114,70 212,140 342,207 314,163 742,387 922,677 137,220 99,619 163,904 85,376 343,526 324,743 -51,-17 -84,-47 -109,-54 -18,-5 -86,-7 -117,-9 -57,-3 -177,48 -229,79 54,14 109,30 164,42 l 158,43 c 85,29 81,-4 143,54 89,84 442,426 444,486 -75,-1 -161,-99 -222,-134 57,70 201,215 231,309 -64,-29 -113,-74 -182,-114 -52,16 -10,30 -71,46 l -324,-268 c -136,-90 -72,-100 -110,-163 -69,-112 -86,39 -108,78 l -69,-161 -235,-22 c 13,77 53,113 79,174 -61,-47 -88,-83 -167,-114 -110,-42 -97,-60 -178,-111 l -154,104 c -34,25 -6,14 -36,26 20,-20 109,-170 143,-219 164,-233 289,-421 453,-481 22,-9 11,-4 25,-13 3,-2 12,-10 15,-13 l 58,-47 c -165,-8 -409,116 -463,223 20,-86 117,-193 156,-285 -149,143 -272,314 -388,488 l -104,171 c -2,-3 -6,7 -15,10 l 43,-344 c -79,124 -112,400 -129,574 -16,173 -12,140 -85,265 -36,60 -87,165 -119,211 -41,-80 -139,-214 -197,-248 66,184 142,280 66,455 l -18,48 c -6,20 -10,39 -15,65 l -70,15 c -3,1 -8,2 -11,3 -76,18 -113,46 -185,134 -53,65 -221,259 -103,363 56,49 -21,25 73,37 22,-214 44,-78 77,-24 64,-39 11,-24 74,-52 33,80 -2,55 55,108 63,-27 86,-88 101,-171 39,-218 15,-237 152,-348 60,-48 69,-81 134,-116 119,94 199,191 409,240 252,59 372,-12 438,-193 37,37 45,70 50,121 43,-13 98,-6 161,43 0,0 -81,-27 -158,-6 7,74 21,109 27,166 z M 9060,9167 c 329,-13 278,-6 215,-93 -130,-179 5,-230 55,-270 5,-95 7,-145 -84,-94 -43,23 -114,68 -140,95 -93,95 -90,217 -46,362 z m 0,145 -13,103 c 117,79 35,10 105,114 30,44 84,69 150,68 49,-71 62,-119 61,-232 -42,-21 -12,12 -56,-12 -25,-14 -10,-9 -24,-21 -2,-2 -5,-6 -6,-8 -37,-29 -118,-5 -217,-12 z m 513,-3978 c 61,488 635,403 689,261 18,-46 8,-144 -16,-177 -34,-47 -106,-33 -164,-26 -38,61 -124,329 -322,81 -89,-111 -21,15 -133,-167 z m 9639,364 c -37,27 -49,53 -92,93 -217,207 306,282 379,247 90,-42 243,-210 201,-357 -137,24 -73,195 -237,192 -158,-3 -114,-139 -251,-175 z m 845,3527 c 52,13 123,71 155,103 l -5,203 c 25,16 -8,3 40,17 l 132,28 c 21,-134 21,-345 -95,-432 -56,-41 -71,-32 -157,-26 z M 7849,12446 c 45,34 47,-24 62,34 -75,53 -64,-30 -185,76 -48,41 -26,-1 -42,55 73,12 132,-9 196,-14 l 45,154 c 139,-84 73,-81 257,-52 80,-59 83,-78 199,-138 126,-63 98,-77 227,-4 l -1,-80 c -200,-19 -237,32 -426,-46 -212,-89 -154,-116 -332,15 z m 915,-2803 -11,71 c 66,55 123,8 195,101 7,88 -32,108 -102,128 -98,29 -77,35 -125,110 -43,65 -41,102 -75,158 -45,74 -64,34 -82,159 81,66 47,73 101,142 70,-58 46,-152 26,-225 -27,-101 33,-159 86,-222 97,0 115,32 170,63 179,-269 195,101 418,-113 91,-87 109,-188 17,-288 -200,64 -276,28 -384,-141 -81,-1 -177,26 -234,57 z m 6322,4578 c -12,-139 319,-310 399,-338 186,-66 279,-124 449,-57 75,29 82,37 76,119 -77,40 -167,20 -262,35 -61,10 -151,51 -224,76 z M 20009,4057 c 125,55 228,-27 314,-95 58,-46 218,-176 252,-218 -49,91 -133,171 -204,249 -48,54 -234,197 -206,276 17,45 572,486 596,533 l -180,-50 c 116,127 583,324 823,349 -13,-10 -12,-11 -33,-24 l -300,-153 79,-40 c -96,-30 -488,-274 -537,-335 139,18 595,241 679,202 -32,-72 -225,-125 -302,-177 l -49,-42 c 125,9 245,61 372,56 79,-3 62,5 82,-70 -69,-37 -155,-36 -225,-83 78,-98 264,3 346,-134 -49,-38 -125,-39 -183,-66 9,-9 4,-8 28,-18 21,-10 25,-10 50,-16 31,-7 65,-12 99,-18 94,-18 110,-11 146,-76 -135,-11 -213,1 -351,-32 105,-23 364,-18 434,-90 -89,-29 -222,2 -321,-46 125,-42 366,-28 442,-121 -82,-52 -354,14 -480,-50 68,-50 229,-51 318,-65 l 290,-76 c -138,-10 -439,61 -538,-9 114,-54 462,-40 576,-97 -121,-3 -323,43 -429,-3 99,-78 310,-79 424,-162 l -381,23 c 126,-51 535,-184 622,-316 -148,12 -383,125 -511,83 -8,-88 149,-173 212,-226 126,-105 281,-190 420,-280 51,-33 82,-70 140,-93 136,-55 85,-48 185,-280 l 19,157 c 182,69 234,-183 346,-205 -19,100 -56,121 -89,196 108,-39 139,-135 222,-185 71,-41 103,-19 178,-39 60,-16 85,-49 142,-72 -33,70 -81,99 -115,167 160,-7 364,-158 514,-196 -51,68 -123,89 -158,175 137,6 429,-189 609,-208 -23,117 -264,164 -320,287 152,-4 396,-52 519,-111 99,-47 318,-182 414,-192 -20,48 -46,63 -72,111 134,-13 487,-269 688,-293 l -45,89 185,-47 c -72,67 -163,98 -230,165 124,-6 266,-71 380,-112 10,-4 58,-22 63,-23 l 78,12 -202,116 c -69,45 -34,6 -61,66 197,-2 323,-96 467,-107 -42,59 -145,121 -167,204 157,-4 303,-86 454,-70 33,69 -15,37 33,100 l 183,-4 c -64,83 -199,73 -251,155 75,38 181,12 255,48 31,14 9,0 30,22 -184,85 -564,49 -625,87 -127,80 -213,396 -291,424 -21,-45 15,-85 12,-182 -2,-39 28,-163 26,-251 -235,0 -245,182 -397,206 -110,18 -153,0 -259,44 -159,65 -206,204 -43,175 34,-7 79,-25 116,-36 66,-19 164,-46 224,-21 -81,91 -271,120 -375,204 -42,34 -17,0 -44,49 261,-18 258,-81 446,-125 -67,98 -167,150 -202,221 l 233,-50 c -32,83 -93,125 -154,160 -152,-101 -125,-38 -291,-70 -280,-56 -629,60 -842,210 -142,100 -285,207 -432,302 -133,85 -426,157 -515,231 121,1 309,-80 420,-16 -142,154 -437,93 -594,200 14,14 -3,5 31,22 17,8 19,9 38,14 23,6 60,10 86,14 57,8 124,25 174,23 -105,20 -305,5 -387,77 87,31 215,8 312,18 187,19 392,109 585,114 106,3 179,1 276,41 -134,22 -348,-2 -438,60 l 319,174 c -122,3 -320,-19 -418,28 55,43 163,66 236,73 -50,2 -84,-2 -132,-5 -48,-3 -95,-2 -132,30 76,66 246,20 360,183 -166,-11 -429,-82 -572,0 53,60 245,90 313,109 -135,-7 -287,-48 -432,-55 -144,-8 -262,66 -396,98 -143,34 -248,70 -356,144 -55,37 -257,187 -277,236 345,104 1088,-134 1487,-155 -93,105 -303,92 -424,121 -24,5 -365,138 -382,148 148,11 329,-11 444,56 -123,109 -489,4 -617,108 -24,110 107,108 170,168 -63,20 -117,23 -166,55 60,70 198,57 276,98 -468,34 -502,91 -1022,55 -69,-5 -119,-16 -170,11 -55,29 8,37 -157,27 l 79,57 c 65,31 134,45 194,88 l 42,37 c -194,-21 -409,-143 -549,-149 -8,64 87,159 121,239 l -132,20 c 16,96 106,105 193,127 296,75 552,157 861,146 636,-21 967,-229 1431,-542 l 379,-287 c 203,-138 341,-367 520,-481 200,-126 616,-693 778,-871 157,-171 275,-379 428,-554 196,-223 122,-136 275,-375 132,-204 274,-391 398,-601 150,-251 386,-603 300,-986 -71,-317 -379,-527 -680,-636 -843,-304 -2667,-24 -3469,223 -343,105 -653,248 -876,440 -471,405 -979,774 -1539,1093 -76,44 -427,190 -451,215 -78,79 -159,387 -113,529 z m -9303,11787 76,45 c 8,117 -19,118 -142,230 -50,46 -180,108 -275,115 7,-129 44,-49 48,-173 3,-78 9,-116 40,-179 113,-225 152,-115 154,-273 4,-232 377,-131 196,107 -38,50 -68,88 -97,128 z M 8892,13564 c 249,-92 374,206 228,287 -141,78 -190,-30 -238,-89 -34,-43 -63,-34 -66,-100 -3,-75 34,-83 76,-98 z m 556,-4454 c -9,193 251,301 296,365 87,124 -120,310 -142,413 -16,73 29,76 75,126 -39,282 -38,122 125,184 -12,130 -291,423 -436,417 -122,-5 -29,-10 -136,16 -114,28 -183,-37 -267,-87 -43,77 -102,86 -157,153 -20,168 39,78 41,200 1,91 -56,98 -38,190 125,4 96,-100 286,-113 41,-76 61,-152 178,-86 66,38 128,98 116,209 -10,100 -91,142 -179,88 -150,-92 -90,9 -89,122 144,51 86,172 300,202 173,25 242,-141 388,-91 63,22 188,262 186,310 -5,89 -162,234 -242,262 -3,-81 35,-113 -4,-193 -124,-81 -189,86 -250,119 -95,-41 -55,-85 -167,-110 -155,76 -98,408 -250,307 -46,-30 -57,-164 -79,-220 -37,-96 -50,-144 -31,-257 77,-12 114,54 193,49 146,-9 27,-120 -52,-153 -24,-10 -223,-52 -251,-55 -124,323 -346,98 -265,-98 45,-110 64,-43 71,-186 -47,-37 -90,-67 -76,-154 24,-144 24,-69 -12,-210 l -184,74 c 50,71 90,141 55,246 -69,27 -146,22 -185,82 -26,39 -52,169 -44,208 133,-46 235,3 226,144 -42,39 -77,44 -130,83 -190,143 -178,218 -250,449 69,50 155,131 265,49 149,-111 55,-212 137,-346 41,-67 42,-137 149,-149 125,-13 226,51 210,178 -52,38 -56,21 -110,50 13,255 -73,132 -116,279 92,8 226,-35 261,-10 101,72 -25,460 -221,444 l -18,92 -107,14 c -45,127 -41,53 -50,214 -15,278 -223,71 -299,77 -16,1 -143,81 -164,93 38,111 37,268 161,307 60,-73 38,-112 133,-169 153,15 100,119 271,-4 130,-94 170,-21 320,-15 -38,-75 -123,-104 -111,-222 13,-142 209,-199 229,-32 7,63 -6,79 24,129 l 39,-170 115,-2 c -29,-119 -100,-91 -92,-293 -76,-50 -150,-30 -124,-178 27,-154 194,-199 292,-85 51,60 57,33 75,89 24,74 15,161 128,207 207,-186 -34,-350 -1,-449 33,-51 104,-99 200,-86 102,14 90,89 137,166 54,89 138,17 150,138 10,100 -76,131 -154,148 44,58 70,77 13,161 -33,49 -74,87 -96,156 l 115,-8 c 22,-99 78,-114 174,-94 26,55 8,72 18,130 1,4 2,8 3,12 9,37 12,-2 20,60 -142,128 -26,267 -303,208 -76,-16 -159,27 -218,-32 -54,-55 -35,-140 -129,-178 -54,162 -52,376 -231,467 -25,13 -58,26 -90,13 -37,-16 -9,5 -34,-34 l -24,-47 c -72,31 -114,75 -216,76 -147,1 -194,-62 -330,13 -89,49 -34,27 -63,89 -22,47 -79,63 -63,123 13,50 -1,-53 19,35 -103,56 -22,23 -58,106 -34,77 -58,19 -87,94 121,80 257,-238 508,-9 42,39 129,149 192,156 83,9 209,-77 249,-68 1,3 2,5 2,10 -1,4 1,8 1,9 l -53,66 c 64,22 115,15 170,49 75,45 39,54 163,77 53,-49 60,-79 151,-26 54,31 117,16 186,-9 -6,-107 -41,-99 -81,-179 -33,-68 -26,-140 -56,-200 -326,18 -419,-110 -263,-189 116,-59 196,-124 342,-66 69,27 121,110 220,46 35,-23 46,-59 60,-91 l 57,-96 c 45,54 39,416 -217,419 66,248 263,248 475,261 174,10 207,-188 288,227 29,147 6,220 -91,284 -173,115 -113,204 -280,338 -39,31 -7,38 -85,33 -22,-96 37,-48 -17,-148 -26,-48 -62,-76 -60,-109 31,-114 71,3 106,-135 69,-270 -171,-205 -194,-67 -13,79 -50,87 -65,166 l -9,68 c -62,25 -148,-35 -233,-21 -44,8 -137,92 -169,118 -78,62 -168,132 -259,176 -96,47 -87,14 -100,0 -84,-102 190,-257 208,-410 17,-140 -7,-175 -105,-223 -102,-48 -101,-4 -206,-9 -32,-1 -32,-12 -88,-14 l -172,373 c -40,190 -6,112 -150,235 -66,57 -19,46 -53,130 -30,76 -108,139 -137,242 134,47 211,61 305,-40 110,-120 129,-129 258,-27 26,-85 25,-109 135,-97 66,82 86,312 -133,400 -19,226 -111,217 -138,339 38,28 140,79 160,120 49,103 -44,124 -43,245 116,78 119,124 324,110 45,-79 85,-140 197,-87 21,91 6,172 -28,262 -34,88 -104,119 -146,196 264,-65 198,-18 339,48 l 184,-70 c 36,-261 -21,-102 113,-268 43,-52 81,-235 232,-126 161,116 11,541 20,679 156,101 332,-8 425,91 106,113 154,222 353,70 -67,-53 -169,-65 -66,-322 -77,16 -167,104 -249,31 -49,-85 29,-129 64,-177 49,-66 20,-23 29,-108 6,-50 9,-67 43,-103 149,-158 254,26 343,92 -8,44 -17,33 -40,77 l 166,14 c 1,2 3,-9 4,-7 8,24 2,-48 74,-137 -58,218 -291,346 -183,463 l 39,18 c 57,20 112,22 136,91 37,108 -28,217 49,258 34,4 58,-118 147,-152 193,128 37,379 315,267 158,-63 372,-156 358,212 48,27 56,40 93,60 112,-102 92,-245 265,-307 129,-46 218,-29 250,-315 13,-110 -14,-156 46,-238 35,-50 103,-108 111,-178 7,-66 -74,-430 -105,-468 -84,20 -220,210 -253,302 -20,57 -19,138 -76,167 -116,59 -94,-17 -217,186 -55,89 -97,193 -171,247 -82,1 -211,-50 -253,-101 14,-77 38,-60 104,-115 39,-33 75,-61 75,-127 -117,-43 -268,72 -388,-8 97,-78 74,0 148,-148 l 23,-42 c 76,-136 202,-141 308,-227 70,-57 71,-112 133,-161 52,48 62,74 132,91 39,-236 -342,-428 -415,-419 -158,60 -119,265 -322,283 -127,11 -127,-49 -214,55 -51,61 -19,39 -43,109 -28,82 -37,18 -59,112 -45,-79 -94,-74 -91,-202 2,-50 9,-244 17,-280 30,-129 270,-137 374,-82 47,25 -26,6 55,33 135,-46 61,-110 215,-167 1,-97 -22,-136 -39,-214 -98,11 -83,29 -140,45 -68,20 -10,-18 -120,-23 -98,62 -36,82 -84,154 -13,19 -124,69 -149,82 -28,-55 16,-15 -37,-95 -143,69 -129,114 -183,240 l -157,278 c -30,42 -2,4 -33,36 l -123,114 -63,-47 -167,78 c -6,-174 359,-352 381,-619 l 65,-267 c 135,-21 218,40 289,-65 1,-38 -22,-29 -7,-73 26,-72 19,36 38,-94 11,-74 34,-156 12,-215 -149,-21 -251,192 -432,204 -49,-59 -32,-117 -137,-94 -191,42 -231,127 -348,184 -64,30 -106,70 -147,121 -46,56 -80,123 -151,183 -47,39 -67,32 -96,103 -90,223 115,219 124,360 -103,137 -404,65 -530,-8 -31,-127 36,-169 83,-275 29,-68 131,-398 -38,-290 -56,36 -26,27 -59,70 -111,-5 -142,-90 -250,-72 -87,61 -101,220 -183,278 -115,82 -267,7 -293,-93 133,-67 284,-29 346,-320 67,-319 77,-257 363,-236 l 23,-27 c 26,-26 -1,-7 27,-24 39,-25 36,-17 82,-23 303,-36 281,-108 435,56 138,-83 47,-12 116,-131 147,-29 69,48 182,-54 92,-85 176,-71 267,-199 76,-106 67,-27 134,-47 102,-76 147,-694 128,-859 101,17 91,47 108,138 40,215 57,487 28,703 3,3 9,3 10,8 1,5 8,6 10,8 152,131 111,261 414,301 -28,-88 -77,-159 -110,-254 -82,-231 -49,-517 -98,-633 -39,-92 -52,-210 -88,-298 -147,-361 -279,-711 -403,-1096 -265,-824 -239,-559 -556,-926 -112,-129 -167,-327 -212,-539 -20,-94 -64,-491 -127,-556 l -18,-12 c 3,-113 -5,-176 -16,-284 -7,-59 -5,-150 -39,-194 -92,-117 52,122 -20,-22 l 16,-158 c -36,97 -14,336 -60,433 -91,-220 20,-820 13,-1075 -59,77 -78,307 -148,412 -20,-46 51,-423 55,-528 8,-203 -45,-370 -53,-590 -293,-85 -89,-225 -233,-265 l -15,204 c 6,75 65,115 98,169 82,134 -154,229 -217,277 z m 8260,4395 -1,-268 c -191,152 -166,148 -290,396 -125,253 -129,423 -284,342 -124,-65 68,17 -36,-21 -19,113 -66,242 -93,365 -30,141 -56,252 -68,401 -15,204 -44,387 -124,574 -15,35 -42,76 -36,109 1,4 6,16 8,20 1,2 4,8 5,11 17,41 -192,263 -224,295 -52,54 -282,201 -127,323 90,71 137,10 195,-20 65,-33 136,-7 206,-62 148,-119 -6,-85 307,-230 57,112 8,109 113,237 116,18 178,-22 225,-96 76,-119 219,-250 337,-329 98,-65 136,-22 170,-161 l 19,19 c 14,16 9,8 25,29 18,25 26,41 39,61 63,95 214,264 348,154 149,-122 -134,-403 -165,-494 304,-33 152,160 341,149 83,-120 -7,-287 165,-349 98,25 86,91 169,148 32,22 76,36 112,55 29,14 26,10 49,34 l 36,52 c 110,-19 138,-75 214,-1 17,-66 50,-84 55,-153 -63,-101 -90,-57 -189,-114 -82,-47 -55,-104 -97,-204 -66,-158 -235,-182 -424,-145 49,-159 178,-75 259,-102 179,-59 103,-83 316,-19 134,40 150,65 196,187 47,124 64,153 99,297 6,2 370,59 115,226 l 36,174 c 249,2 246,-20 418,214 l 208,-1 c 22,-100 -52,-59 8,-180 33,-9 72,-15 116,-8 52,7 58,41 87,19 l 26,-234 c -148,46 -583,95 -499,-167 147,-51 166,40 316,35 l 2,-121 c -77,-30 -120,-5 -157,-80 -46,-91 4,-107 -80,-169 -180,-131 -159,67 -337,22 -94,-24 -137,-158 -258,-227 -192,-110 -162,-84 -160,-336 -10,-33 -145,-52 -186,-66 -54,-19 -35,-6 -84,-16 -128,-26 -124,-153 117,-154 l 197,-2 c 67,-83 117,-135 193,-205 85,-78 117,-131 293,-106 122,16 146,142 69,235 l -183,213 c 21,60 44,41 41,115 -1,47 -24,82 -32,136 51,51 26,49 107,81 50,19 108,23 170,23 -5,-149 25,-186 80,-302 10,-20 22,-50 33,-69 39,-68 141,-97 226,-64 72,28 81,134 106,199 24,66 -20,15 42,56 l 244,158 c 48,-98 135,-137 163,-199 -39,-62 -132,-92 -176,-141 -58,-65 -45,-155 -74,-242 -75,-33 -171,5 -228,-39 -68,-52 -6,-120 -104,-179 -199,-118 32,-293 149,-254 95,61 76,96 79,227 l 81,-62 c 29,-20 58,-31 104,-28 59,4 37,15 113,11 55,-3 47,-5 98,1 23,-130 -10,-166 -43,-263 -244,57 -95,-2 -349,-1 -100,0 -101,3 -165,-46 -24,-18 -39,-27 -59,-43 -3,-2 -7,-5 -10,-7 -25,-21 -17,-33 -49,-43 -69,61 -108,82 -65,209 41,123 29,148 -46,233 -194,12 -180,-85 -189,-252 -66,-49 -96,-101 -152,-145 -45,-36 -137,-92 -201,-108 -47,165 41,357 -1,466 -54,147 -289,203 -212,-63 -159,-10 -185,-7 -284,-97 4,-3 9,-10 11,-6 2,3 9,-5 11,-7 3,-1 18,-9 22,-11 67,-37 51,-76 118,-120 -85,-34 -31,-69 -129,-122 l 67,-60 c 49,-33 59,-7 79,-64 39,-112 -92,-103 -179,-107 50,-131 220,-96 373,-117 10,-212 -30,-116 -75,-217 -39,-86 41,-125 50,-220 -77,-46 -164,-22 -186,-115 82,-114 258,-22 254,-232 -3,-141 -36,-369 176,-295 161,57 45,208 44,343 -2,309 -44,166 -123,384 52,85 126,121 209,161 l 49,22 c -29,92 -76,-14 -31,140 32,109 23,134 127,157 46,-3 40,-66 133,-179 l 28,-37 c 2,-3 5,-8 7,-10 2,-3 6,-8 8,-11 1,-2 4,-7 7,-10 45,33 12,8 44,63 l 77,-83 c -109,-52 -154,-137 -159,-310 -121,7 -400,92 -341,-129 23,-83 84,-120 122,-165 56,-67 34,-132 162,-119 7,-71 21,-74 56,-122 113,13 270,116 231,240 -11,36 -13,27 -34,50 -29,30 -9,-3 -42,42 43,127 90,60 163,138 54,59 48,149 89,227 40,75 100,91 119,179 23,107 -20,188 42,279 83,25 77,-14 129,-65 42,-42 64,-60 125,-92 39,-248 -38,-191 -165,-301 -110,-96 -183,-247 -145,-427 47,-228 287,79 395,125 -109,-197 -39,-76 25,-220 50,-115 13,-208 -25,-292 -27,-60 9,-35 -71,-81 -191,-109 -141,-18 -217,44 -44,36 -16,7 -60,26 -37,15 -29,8 -52,38 l -151,-299 c -119,44 -173,181 -200,220 -70,-22 -177,-6 -220,-45 -62,-58 -28,-143 20,-187 41,-37 87,-92 105,-160 28,-101 -17,-149 -88,-180 -30,39 -34,113 -51,157 -31,79 -67,74 -138,54 -43,-117 8,-223 -12,-312 l -13,-116 c -11,-33 -40,-16 -48,-123 55,-38 79,-16 122,-58 47,-46 151,-269 322,3 264,-179 247,39 421,125 -13,-64 -24,-68 -41,-119 -28,-78 -8,-75 -9,-154 -31,-42 -64,-66 -90,-113 -35,-66 -17,-89 -83,-133 -151,-100 -115,-73 -210,-216 -306,-6 -128,54 -233,168 -65,36 -30,17 -99,9 -115,-13 -148,73 -255,2 56,-149 112,-49 167,-183 19,-46 43,-75 57,-110 11,-27 17,-41 14,-72 -5,-41 -3,-20 -13,-39 l -28,-29 c 157,-131 -9,-306 30,-478 -305,-10 -90,-283 -132,-333 -40,-39 -108,-19 -180,-36 -40,82 -71,191 -115,281 -89,180 -340,742 -375,874 -129,489 -200,875 -245,1408 -16,187 -90,499 -167,645 -95,182 -182,384 -337,496 -282,205 -506,769 -747,917 z m -3187,-2336 c 113,22 188,153 263,-18 77,-174 18,-302 63,-375 129,87 7,421 16,523 68,32 58,-2 83,52 -66,54 -74,36 -138,35 -155,-2 -89,280 -227,342 -88,-196 8,-263 68,-398 -65,-62 -131,-48 -128,-161 z m 513,-1023 c 8,-62 158,-240 180,-257 109,36 130,129 140,265 -64,-32 -41,-32 -82,-101 l -51,133 c -69,-28 -25,-10 -74,-65 -46,29 -41,36 -113,25 z m 1013,-180 c 168,11 134,-108 216,-185 76,21 63,52 143,71 89,21 122,-5 191,-5 139,106 223,304 291,526 130,422 -80,519 -428,721 -118,68 -519,138 -896,316 34,81 124,175 59,313 -118,250 -621,118 -868,318 263,-444 476,-170 706,-297 106,-59 162,-222 -10,-301 -251,-116 -318,7 -387,-79 30,-60 18,-25 100,-50 174,-53 144,-227 519,-481 141,-95 265,-96 443,-138 69,-16 148,-49 224,-58 99,-11 188,15 262,5 85,-38 149,-487 -99,-616 l -33,97 c -77,-35 -16,-35 -102,-57 18,42 37,65 19,113 -77,2 -140,-71 -168,-115 -51,66 -79,53 -165,31 -119,-29 -69,1 -151,34 -145,-41 -42,-55 -183,17 -43,-28 -61,-65 -127,-74 l -53,103 c -2,-2 -6,10 -9,14 -43,-126 -139,-226 -140,-291 -3,-172 245,142 464,52 106,-43 27,-60 102,-106 z m -2240,1167 c -287,-193 -629,-301 -807,-672 -209,-437 254,-791 501,-856 l 30,74 c 62,-10 45,-22 116,-14 43,67 57,179 76,255 82,-60 21,-100 109,-152 l 49,181 c 65,-30 45,-77 116,-152 3,3 6,8 8,10 1,2 5,8 7,10 l 43,40 c 61,21 178,-64 226,-90 76,29 -8,21 69,39 46,10 29,-15 79,11 94,50 -20,48 168,64 179,16 -37,69 339,131 -19,55 -139,138 -172,158 -77,-40 -20,-50 -100,-95 -77,37 -47,63 -118,88 -25,-63 6,-49 -49,-90 -114,26 -48,69 -150,89 -38,-53 -26,-107 -50,-181 -48,47 -59,89 -116,117 -49,-26 -47,-55 -84,-95 -86,28 -183,77 -286,77 l -41,-58 c -26,27 -91,72 -145,77 l -9,-102 c -60,-5 -68,-5 -124,-34 l 22,-166 c -67,26 -61,44 -125,75 -44,22 -87,33 -124,60 -154,116 -114,506 -12,549 19,8 206,48 272,72 152,56 133,55 319,70 148,11 355,223 418,310 91,127 161,178 102,232 -157,82 -473,-68 -485,167 -7,149 235,154 336,346 -223,-52 -524,-229 -408,-545 z m 4591,-1923 c 24,-33 86,-207 111,-266 19,-45 40,-95 55,-144 16,-48 18,-106 32,-142 37,45 96,259 123,334 l 107,244 c 21,55 20,44 3,86 -73,-24 -124,-99 -161,-163 -55,-95 -68,-165 -126,-197 -16,197 52,385 69,570 -42,-48 -94,-201 -140,-226 -17,205 96,543 106,779 -19,-32 -35,-72 -54,-114 -8,-18 -18,-41 -28,-55 -26,-38 -14,-21 -32,-36 -28,58 39,679 37,825 l -157,56 c -45,115 -4,305 -64,407 -15,-58 -50,-184 -83,-228 -50,74 -122,419 -159,565 l -38,144 c -11,23 -13,22 -20,30 -44,-115 8,-516 8,-665 2,-242 -65,-370 -145,-562 -104,-251 -209,-885 -157,-1183 44,98 81,250 115,358 42,132 259,878 342,943 144,112 51,-240 93,-328 l 62,124 c 44,-144 70,-550 44,-714 -18,-115 -49,-185 -61,-322 -9,-114 -23,-238 -20,-352 57,59 93,169 138,232 z m -1592,-52 c -29,-80 -357,-263 -366,-393 67,-15 216,18 285,38 89,27 135,78 193,124 70,56 96,97 161,155 48,44 113,102 162,143 -99,-45 -423,-266 -504,-271 65,115 378,326 391,424 -142,13 -260,-53 -376,-90 76,140 515,238 687,556 -145,-30 -336,-181 -474,-226 83,135 194,168 286,292 l -169,-61 c 43,99 224,288 245,374 52,213 -71,166 -122,83 -135,-219 -66,-97 -191,-242 -35,-40 -58,-69 -92,-109 -73,-85 -360,-408 -378,-481 l 245,82 c 18,-84 -79,-172 -121,-212 -53,-52 -141,-95 -155,-182 92,-24 192,5 293,-4 z m -4598,-822 c 34,-52 87,-108 125,-152 135,-154 240,-323 439,-350 -34,97 -143,135 -157,245 99,-18 130,-71 234,-83 -33,155 -275,332 -324,505 95,-19 134,-75 225,-109 -27,59 -69,101 -77,172 -9,84 26,152 11,234 -19,108 -148,181 -150,296 75,-11 185,-74 239,-103 -42,26 -158,137 -148,213 131,15 363,-163 484,-201 -92,82 -210,223 -343,281 -210,91 -143,-125 -467,-56 49,-52 126,-105 151,-196 l -88,-34 c -30,-220 175,-187 215,-299 -103,-72 -204,12 -347,2 13,-64 124,-156 208,-295 53,-85 160,-214 189,-294 -124,29 -271,182 -419,224 z m 5675,-804 c 14,-106 73,-260 109,-370 36,-109 77,-276 171,-311 101,105 -2,61 61,220 30,75 69,157 75,242 -74,-59 -107,-186 -204,-214 -2,8 -193,395 -212,433 z m -525,-155 c -17,-60 -103,-86 -155,-117 -207,-125 -446,-352 -446,-352 149,26 45,81 405,126 61,8 75,32 134,54 -75,27 -42,-11 -66,45 46,88 202,202 291,258 l 97,80 c -110,-12 -288,-82 -371,-57 31,148 340,276 405,374 -155,-27 -253,-111 -424,-119 127,89 142,15 159,228 25,317 37,67 -37,292 l -46,-48 c -8,-11 -21,-32 -33,-50 -199,-305 -233,-282 -350,-434 -81,-103 -7,-108 20,-190 -74,-72 -156,-73 -240,-131 209,-7 407,84 657,41 z m -5757,-341 c -52,162 -234,351 -388,394 30,-109 229,-228 250,-405 l -115,22 c 47,-83 204,-163 198,-312 l -110,-38 c -14,-75 -1,-98 15,-163 74,15 172,121 197,199 26,80 -20,222 -47,303 z m 5970,-2511 c 35,-23 86,-36 142,-45 32,44 -23,24 51,35 103,14 246,-20 319,15 29,87 -47,46 -64,135 61,60 97,23 129,86 -50,48 -103,44 -120,74 l 244,56 c -86,47 -180,-12 -254,37 70,76 150,31 204,172 l -445,-34 281,-31 -184,-41 c 12,-16 7,-10 26,-28 l 63,-57 -266,-41 c 97,-6 235,12 316,-24 -55,-44 -182,-61 -256,-91 l 250,4 -171,-47 139,-26 -208,-50 173,-40 c -94,-49 -282,11 -369,-59 z m -5879,3 c 61,-24 146,-10 223,-10 50,-1 108,3 135,-17 l 153,10 c -64,107 -271,35 -370,72 l 136,34 c 27,11 21,10 36,20 l -204,40 108,37 c -66,32 -89,15 -140,35 l 243,-3 -252,99 320,16 -268,37 c 13,15 10,11 27,26 4,4 15,13 19,17 l 38,39 c 1,-3 6,8 9,10 l -187,39 281,29 -446,37 c 23,-132 135,-105 204,-177 -68,-46 -168,5 -254,-35 58,-43 176,-32 243,-64 -56,-48 -70,-9 -123,-73 49,-71 76,0 133,-95 -44,-70 -89,-46 -64,-123 z m 6088,-275 c 13,23 -2,43 0,48 144,13 154,56 314,56 -30,70 -265,125 -359,133 l 24,-19 c 62,-38 78,-17 149,-70 l -355,-80 z m -5799,52 c 2,-3 3,-8 3,-10 1,-1 3,-7 4,-9 0,-2 2,-7 2,-9 1,-2 2,-7 2,-9 1,-1 3,-4 3,-7 0,-4 1,-5 3,-8 l 154,44 c 44,16 20,5 47,24 -52,12 -119,20 -181,33 -58,13 -115,20 -151,47 35,27 41,28 87,44 l 87,46 c -80,-8 -143,-27 -215,-52 -57,-19 -123,-30 -144,-82 160,0 173,-50 299,-52 z M 9957,4032 c 251,63 300,299 383,561 98,315 174,389 339,570 -555,-261 -291,-739 -582,-950 43,155 121,203 101,403 -169,-153 -206,-353 -449,-481 l -89,-52 c 170,7 296,101 369,197 z m 7442,-97 c 174,-132 357,-194 624,-204 -21,19 1,4 -35,26 -14,8 -21,11 -36,18 -60,26 -128,38 -179,87 -21,20 -134,185 -144,219 173,-30 534,-111 710,-88 -143,31 -277,89 -428,101 -147,12 -302,94 -439,102 13,-283 30,-79 126,-262 l -165,11 c -62,-8 -13,1 -34,-10 z m -5252,146 c -16,-43 -120,-195 -154,-225 -67,-59 -180,-69 -247,-124 318,-3 428,82 634,200 l -35,12 c -4,1 -9,2 -13,2 l -155,-12 c 40,68 56,80 127,113 l -5,152 c -134,-33 -314,-94 -449,-106 -141,-12 -275,-68 -413,-101 180,-20 535,58 710,89 z m 4965,-297 c 144,-114 658,-327 861,-149 -126,55 -562,-7 -786,309 30,-54 64,-90 53,-177 z m -5310,-149 c 194,-179 720,35 861,147 l -129,-10 c -9,71 21,107 44,158 -413,-376 -524,-190 -776,-295 z m 1858,-1222 c -31,-20 -148,-164 -172,-202 24,95 95,159 114,277 -138,-40 -134,-150 -435,-264 11,78 55,107 78,182 l -319,-60 c 109,8 329,128 348,250 -150,-48 -225,-74 -412,-30 40,106 180,127 236,253 l -484,-167 c 55,-48 137,-25 211,-6 -32,-102 -148,-119 -200,-221 l 286,25 c -39,-84 -117,-60 -146,-164 77,-64 250,-43 357,-23 -34,-111 -48,-56 -81,-117 137,-18 253,42 372,58 l -48,-151 c 86,17 133,87 217,120 l -54,-135 c 66,27 101,88 162,131 l -19,-127 c 74,-24 124,1 245,-36 39,-12 -18,-5 32,-10 25,-3 47,7 83,13 52,-61 -12,-24 53,-54 61,55 96,141 -3,202 -66,-28 -31,-22 -81,-65 -13,108 25,210 34,318 -64,-66 -61,-168 -105,-242 l 19,199 -143,-219 c -1,-5 -5,-5 -11,-7 l -18,222 c -68,-42 -78,-109 -146,-160 6,85 38,124 30,210 z m 2287,-259 c -83,-76 -57,-135 16,-197 25,16 5,0 25,21 3,3 10,35 17,20 1,-3 5,8 8,12 133,-29 73,19 356,21 l 12,111 139,-104 -59,135 c 81,-37 131,-105 219,-116 l -53,149 c 132,-26 213,-64 367,-64 -29,65 -68,43 -74,120 101,-12 272,-46 355,24 -27,83 -89,98 -146,144 30,24 -31,17 64,18 36,1 95,-25 223,-15 -31,64 -21,28 -117,106 -41,33 -71,53 -82,107 89,-24 208,-36 290,20 -61,24 -184,21 -280,52 -97,31 -145,65 -257,60 43,-91 162,-106 208,-208 -151,-51 -281,-23 -411,28 15,-156 212,-196 341,-258 l -314,61 c 21,-69 63,-99 80,-177 -60,31 -175,74 -226,113 -71,55 -121,124 -209,150 16,-113 80,-187 116,-276 -32,43 -132,170 -186,200 l 43,-211 c -49,36 -115,167 -145,149 -25,-45 -15,-149 -22,-215 -37,30 -41,64 -67,116 -50,98 -68,90 -84,112 l 12,-206 c -28,94 -61,197 -105,272 l 43,-339 c -39,39 -33,53 -97,65 z m -428,-22 c -21,-85 -31,-210 11,-296 64,36 26,81 100,140 55,-39 25,-56 91,-104 l 48,377 c -126,-37 -92,-104 -134,-234 l -19,22 c -3,3 -6,7 -9,10 -3,2 -7,6 -10,8 -72,55 -48,-26 -78,77 z m -96,282 c -70,-148 -242,-327 -424,-396 l -147,-54 c -55,-30 -21,-10 -42,-31 137,13 353,86 465,141 128,63 245,192 294,317 -59,-32 -82,-61 -138,-89 z m -856,-279 c -41,-69 -135,-138 -195,-190 -69,-58 -141,-87 -190,-172 126,61 289,192 422,273 80,48 150,80 229,121 30,16 211,109 219,143 l -319,-107 c 59,64 238,225 259,308 -77,-59 -46,-5 -162,-124 -86,-88 -383,-219 -515,-320 l -39,-36 c 110,18 199,71 291,104 z m 919,15300 c 116,12 54,-22 117,-50 52,-21 23,38 77,-9 47,-68 79,-180 43,-275 -195,-45 -362,176 -237,334 z M 8494,14495 c -19,-53 -53,-117 -88,-174 -74,-116 -103,-20 -206,-73 -169,350 130,415 294,247 z m 10516,1187 c 113,56 253,8 336,-71 137,-130 60,-181 -13,-287 -68,212 -383,108 -323,358 z m -3363,1892 c 89,7 153,-1 227,-23 -23,84 -80,144 -93,247 114,-11 243,-169 250,-305 -45,-71 -62,-10 -83,-117 -11,-55 -32,-128 -28,-176 99,-27 139,54 284,18 67,-287 -190,-410 -378,-570 -68,-58 -100,-137 -166,-179 38,197 216,415 207,557 -32,473 -198,425 -220,548 z m -683,-447 -59,-155 c -112,31 -38,74 -166,197 -49,47 -145,130 -154,204 100,43 157,0 235,30 53,94 -38,227 -92,288 -76,86 -204,75 -228,204 89,80 318,74 349,-54 20,-84 -18,-145 39,-207 58,-63 80,-30 136,-131 113,-203 -29,-280 70,-378 139,-138 202,23 214,-322 -176,-49 -151,-80 -214,86 -29,76 -82,190 -130,238 z m 4545,-1348 c 34,63 121,125 204,151 l -32,18 c -190,98 -12,151 -160,121 -83,225 -49,167 105,183 l 27,5 c 3,0 8,2 12,3 -26,112 -168,81 -253,49 -2,5 -3,56 -58,77 -32,13 -74,1 -103,-12 -8,-3 -69,-42 -84,-52 -40,-30 -38,-45 -84,-58 3,105 21,34 52,132 -134,-26 -292,-80 -388,-135 -14,-125 40,-125 -13,-271 -143,9 -108,206 -285,118 -103,-51 -127,-196 -220,-227 -10,30 -32,152 -40,191 -18,92 8,118 84,145 122,43 267,59 316,160 -42,145 -172,48 -157,196 69,-53 126,-107 252,-81 37,69 20,86 64,111 l 33,7 c -35,62 -120,213 -109,294 40,273 352,229 440,-29 60,-175 -79,-164 -81,-311 52,5 163,62 225,86 119,46 67,101 163,153 132,72 92,44 243,41 111,-3 205,1 247,-82 -154,-2 -340,-27 -308,-198 96,-66 79,-21 181,-4 97,17 99,-30 203,-60 23,-229 37,-107 133,-190 7,-127 1,-75 -38,-151 -33,-63 -13,-71 -50,-134 -141,-238 0,-198 -48,-268 -55,-65 -163,-29 -270,-29 -88,135 -38,122 -203,51 z m -6211,1334 c -76,10 -61,19 -102,194 -45,192 -30,100 -126,172 -7,63 -5,314 15,376 32,100 45,-18 29,196 183,-4 235,-19 381,-78 78,-32 106,-15 186,-26 118,-15 81,-57 166,-75 120,114 29,193 298,187 100,-242 -110,-314 -6,-423 70,-75 291,-160 325,-263 58,-180 -128,-303 33,-479 66,-72 256,-214 261,-311 -164,-34 -218,-6 -281,91 -88,136 -26,190 -92,308 -75,134 -61,9 -128,270 -27,104 -28,251 -104,299 -94,29 -217,-5 -265,-75 l 84,-174 c 48,-60 93,-104 136,-165 105,-150 79,-488 51,-519 -16,-14 10,-39 -58,-7 -72,34 -105,156 -132,198 -149,-29 -128,-260 -238,-341 -72,51 -113,301 -60,401 36,66 232,199 98,329 -74,72 -207,183 -315,200 -313,51 -93,-157 -156,-285 z"
       id="path63" /></g></g>
 </g><g
   inkscape:groupmode="layer"
   id="layer3"
   inkscape:label="Text"
   transform="translate(-2128.9667,-2126.7235)"><text
     xml:space="preserve"
     style="font-style:normal;font-variant:normal;font-weight:bold;font-stretch:normal;font-size:24694.5px;font-family:Candara;-inkscape-font-specification:'Candara, Bold';font-variant-ligatures:normal;font-variant-caps:normal;font-variant-numeric:normal;font-variant-east-asian:normal;fill:#000000;fill-opacity:1;stroke:none;stroke-width:1186.5;stroke-dasharray:none;stroke-opacity:1"
     x="39408.414"
     y="26166.363"
     id="text6275"><tspan
       sodipodi:role="line"
       id="tspan6277"
       x="39408.414"
       y="26166.363">SheepWool</tspan></text></g>
</svg>
